<svg width="12" height="8" viewBox="0 0 12 8" fill="none" xmlns="http://www.w3.org/2000/svg">
<path d="M11.4175 0.769025C11.5935 0.593088 11.5935 0.30784 11.4175 0.131903C11.2416 -0.0440335 10.9564 -0.0440334 10.7804 0.131903L11.4175 0.769025ZM7.19453 4.35491L6.94463 4.72976C7.12332 4.84888 7.36124 4.82533 7.5131 4.67347L7.19453 4.35491ZM5.06484 2.93511L5.31474 2.56026C5.13605 2.44114 4.89813 2.4647 4.74627 2.61655L5.06484 2.93511ZM-2.52388e-05 7.54946C-2.52156e-05 7.79827 0.201676 7.99997 0.450488 7.99997L4.50511 7.99997C4.75392 7.99997 4.95562 7.79827 4.95562 7.54946C4.95562 7.30065 4.75392 7.09895 4.50511 7.09895L0.901002 7.09895L0.901001 3.49484C0.901001 3.24603 0.6993 3.04433 0.450488 3.04433C0.201676 3.04433 -2.56404e-05 3.24603 -2.56171e-05 3.49484L-2.52388e-05 7.54946ZM10.7804 0.131903L6.87597 4.03635L7.5131 4.67347L11.4175 0.769025L10.7804 0.131903ZM7.44443 3.98006L5.31474 2.56026L4.81494 3.30996L6.94463 4.72976L7.44443 3.98006ZM4.74627 2.61655L0.131927 7.2309L0.769049 7.86802L5.3834 3.25367L4.74627 2.61655Z" fill="#E24949"/>
</svg>
