<svg width="16" height="16" viewBox="0 0 16 16" fill="none" xmlns="http://www.w3.org/2000/svg">
<path d="M13.1111 0C14.6516 0 15.9104 1.20574 15.9954 2.72496L16 2.88889V8.93029C16 9.46072 15.8104 9.9716 15.4686 10.3723L15.3491 10.5016L10.5016 15.3491C10.1266 15.7242 9.63122 15.9513 9.10625 15.993L8.93029 16H2.88889C1.34842 16 0.0895591 14.7943 0.00457311 13.275L0 13.1111V2.88889C0 1.34842 1.20574 0.0895591 2.72496 0.00457311L2.88889 0H13.1111ZM13.0312 1H2.96875C1.92674 1 1.07381 1.80952 1.00454 2.83396L1 2.96875V13.0312C1 14.0733 1.80952 14.9262 2.83396 14.9955L2.96875 15H8.99752L8.99776 11.9081C7.29 12.2258 5.45995 11.7199 4.1449 10.3932C3.95049 10.1971 3.95189 9.88053 4.148 9.68613C4.34412 9.49173 4.6607 9.49312 4.8551 9.68924C5.98504 10.8291 7.58103 11.2262 9.03563 10.8779C9.04124 10.8195 9.04779 10.7692 9.05502 10.7237C9.4394 9.69182 10.4071 9.06885 11.5574 9.0045L11.7188 9H15V2.96875C15 1.92674 14.1905 1.07381 13.166 1.00454L13.0312 1ZM14.5846 10.0003L11.8232 10C10.8582 10 10.0684 10.7497 10.0042 11.6984L10 11.8232V14.584L10.0869 14.506L14.506 10.0869C14.5337 10.0592 14.5599 10.0303 14.5846 10.0003ZM5 5C5.55228 5 6 5.44772 6 6C6 6.55228 5.55228 7 5 7C4.44772 7 4 6.55228 4 6C4 5.44772 4.44772 5 5 5ZM11 5C11.5523 5 12 5.44772 12 6C12 6.55228 11.5523 7 11 7C10.4477 7 10 6.55228 10 6C10 5.44772 10.4477 5 11 5Z" fill="#090B0D"/>
</svg>
