<svg width="3" height="13" viewBox="0 0 3 13" fill="none" xmlns="http://www.w3.org/2000/svg">
<path d="M1.25 2.5C0.559644 2.5 -8.48157e-08 1.94036 -5.46392e-08 1.25C-2.44628e-08 0.559644 0.559644 -8.48157e-08 1.25 -5.46392e-08C1.94036 -2.44628e-08 2.5 0.559644 2.5 1.25C2.5 1.94036 1.94036 2.5 1.25 2.5ZM1.25 7.75C0.559644 7.75 -3.143e-07 7.19036 -2.84124e-07 6.5C-2.53948e-07 5.80964 0.559644 5.25 1.25 5.25C1.94036 5.25 2.5 5.80964 2.5 6.5C2.5 7.19036 1.94036 7.75 1.25 7.75ZM-5.13609e-07 11.75C-5.43785e-07 12.4404 0.559644 13 1.25 13C1.94036 13 2.5 12.4404 2.5 11.75C2.5 11.0596 1.94036 10.5 1.25 10.5C0.559644 10.5 -4.83432e-07 11.0596 -5.13609e-07 11.75Z" fill="#090B0D"/>
</svg>
