<svg width="20" height="15" viewBox="0 0 20 15" fill="none" xmlns="http://www.w3.org/2000/svg">
<path d="M15.7485 5.98171C16.3403 6.57352 16.8527 7.29139 17.243 8.05462C17.432 8.42404 17.2857 8.87669 16.9163 9.06564C16.5468 9.25459 16.0942 9.10829 15.9052 8.73887C15.5843 8.11142 15.1634 7.5216 14.686 7.04422C12.1188 4.47709 7.9567 4.47709 5.38956 7.04422C4.89088 7.54291 4.48576 8.10364 4.17386 8.72028C3.98657 9.09054 3.53459 9.23888 3.16432 9.05159C2.79405 8.86431 2.64572 8.41232 2.833 8.04206C3.21648 7.28392 3.71538 6.59337 4.32705 5.98171C7.481 2.82776 12.5946 2.82776 15.7485 5.98171ZM13.643 9.05591C14.0914 9.5043 14.4602 10.055 14.7169 10.6408C14.8835 11.0209 14.7104 11.464 14.3303 11.6305C13.9503 11.7971 13.5072 11.624 13.3407 11.2439C13.1573 10.8254 12.8932 10.4312 12.5805 10.1184C11.1753 8.71324 8.897 8.71324 7.49181 10.1184C7.18075 10.4295 6.9282 10.8083 6.7433 11.2309C6.57696 11.611 6.13396 11.7844 5.75382 11.618C5.37368 11.4517 5.20036 11.0087 5.36669 10.6286C5.62459 10.0392 5.9816 9.50361 6.42929 9.05591C8.42129 7.06391 11.651 7.06391 13.643 9.05591ZM18.4564 3.5055C18.9663 4.01544 19.4478 4.59803 19.867 5.20534C20.1026 5.54684 20.0169 6.01475 19.6754 6.25044C19.3339 6.48614 18.866 6.40037 18.6303 6.05887C18.2616 5.52473 17.838 5.01218 17.3939 4.56801C13.3067 0.480826 6.68004 0.480826 2.59285 4.56801C2.17024 4.99062 1.75109 5.50314 1.36869 6.05437C1.13217 6.3953 0.664059 6.47994 0.323128 6.24343C-0.0178019 6.00691 -0.102446 5.5388 0.134069 5.19787C0.564982 4.57672 1.04022 3.99561 1.53034 3.5055C6.20433 -1.1685 13.7824 -1.1685 18.4564 3.5055ZM11.056 11.6802C11.6429 12.267 11.6429 13.2186 11.056 13.8054C10.4691 14.3923 9.51759 14.3923 8.93071 13.8054C8.34383 13.2186 8.34383 12.267 8.93071 11.6802C9.51759 11.0933 10.4691 11.0933 11.056 11.6802Z" fill="white"/>
</svg>
