<svg width="12" height="20" viewBox="0 0 12 20" fill="none" xmlns="http://www.w3.org/2000/svg">
<path d="M8 9H7V5H9C9.6 5 10 5.4 10 6C10 6.6 10.4 7 11 7C11.6 7 12 6.6 12 6C12 4.3 10.7 3 9 3H7V1C7 0.4 6.6 0 6 0C5.4 0 5 0.4 5 1V3H4C1.8 3 0 4.8 0 7C0 9.2 1.8 11 4 11H5V15H3C2.4 15 2 14.6 2 14C2 13.4 1.6 13 1 13C0.4 13 0 13.4 0 14C0 15.7 1.3 17 3 17H5V19C5 19.6 5.4 20 6 20C6.6 20 7 19.6 7 19V17H8C10.2 17 12 15.2 12 13C12 10.8 10.2 9 8 9ZM5 9H4C2.9 9 2 8.1 2 7C2 5.9 2.9 5 4 5H5V9ZM8 15H7V11H8C9.1 11 10 11.9 10 13C10 14.1 9.1 15 8 15Z" fill="#424C5D"/>
</svg>
