<svg width="16" height="14" viewBox="0 0 16 14" fill="none" xmlns="http://www.w3.org/2000/svg">
<path d="M5.16667 0C5.43713 0 5.70151 0.073102 5.93238 0.210162L6.06667 0.3L7.667 1.5H13.5C14.7703 1.5 15.8192 2.44737 15.9789 3.67409L15.9947 3.83562L16 4V11.5C16 12.8255 14.9685 13.91 13.6644 13.9947L13.5 14H2.5C1.17452 14 0.0899613 12.9685 0.00531769 11.6644L0 11.5V2.5C0 1.17452 1.03154 0.0899613 2.33562 0.00531769L2.5 0H5.16667ZM6.15763 4.03449C5.90991 4.2946 5.57838 4.45592 5.22435 4.49219L5.07143 4.5L1 4.499V11.5C1 12.2797 1.59489 12.9204 2.35554 12.9931L2.5 13H13.5C14.2797 13 14.9204 12.4051 14.9931 11.6445L15 11.5V4C15 3.2203 14.4051 2.57955 13.6445 2.50687L13.5 2.5H7.617L6.15763 4.03449ZM5.16667 1H2.5C1.7203 1 1.07955 1.59489 1.00687 2.35554L1 2.5V3.499L5.07143 3.5C5.1809 3.5 5.28655 3.46411 5.37274 3.39902L5.4335 3.34483L6.694 2.021L5.46667 1.1C5.40176 1.05132 5.32632 1.01941 5.24701 1.0065L5.16667 1Z" fill="#090B0D"/>
</svg>
