<svg width="16" height="29" viewBox="0 0 16 29" fill="none" xmlns="http://www.w3.org/2000/svg">
<path d="M10.0278 14.4962L15.5391 8.99939C15.675 8.86456 15.7829 8.70415 15.8566 8.52741C15.9302 8.35068 15.9681 8.16111 15.9681 7.96965C15.9681 7.77818 15.9302 7.58862 15.8566 7.41188C15.7829 7.23514 15.675 7.07473 15.5391 6.9399L9.01256 0.413367C8.87462 0.281327 8.71197 0.177823 8.53394 0.108795C8.18084 -0.0362651 7.78478 -0.0362651 7.43168 0.108795C7.07729 0.255969 6.79567 0.53759 6.6485 0.89198C6.57418 1.06634 6.53476 1.25358 6.53247 1.44311V11.0009L2.48602 6.9399C2.35079 6.80468 2.19025 6.69741 2.01357 6.62422C1.83688 6.55104 1.64752 6.51337 1.45628 6.51337C1.26503 6.51337 1.07567 6.55104 0.898983 6.62422C0.7223 6.69741 0.561761 6.80468 0.426533 6.9399C0.291306 7.07513 0.184038 7.23567 0.110853 7.41235C0.0376681 7.58904 -1.42486e-09 7.77841 0 7.96965C1.42486e-09 8.16089 0.0376681 8.35026 0.110853 8.52694C0.184038 8.70362 0.291306 8.86416 0.426533 8.99939L5.93783 14.4962L0.426533 19.993C0.291306 20.1282 0.184038 20.2887 0.110853 20.4654C0.0376681 20.6421 2.84971e-09 20.8315 0 21.0227C-2.84971e-09 21.214 0.0376681 21.4033 0.110853 21.58C0.184038 21.7567 0.291306 21.9172 0.426533 22.0525C0.561761 22.1877 0.7223 22.295 0.898983 22.3681C1.07567 22.4413 1.26503 22.479 1.45628 22.479C1.64752 22.479 1.83688 22.4413 2.01357 22.3681C2.19025 22.295 2.35079 22.1877 2.48602 22.0525L6.53247 17.9915V27.5493C6.53476 27.7388 6.57418 27.926 6.6485 28.1004C6.79567 28.4548 7.07729 28.7364 7.43168 28.8836C7.60529 28.9603 7.793 28.9999 7.98281 28.9999C8.17262 28.9999 8.36034 28.9603 8.53394 28.8836C8.71197 28.8145 8.87462 28.711 9.01256 28.579L15.5391 22.0525C15.675 21.9176 15.7829 21.7572 15.8566 21.5805C15.9302 21.4038 15.9681 21.2142 15.9681 21.0227C15.9681 20.8313 15.9302 20.6417 15.8566 20.465C15.7829 20.2882 15.675 20.1278 15.5391 19.993L10.0278 14.4962ZM9.43315 4.93843L12.4644 7.96965L9.43315 11.0009V4.93843ZM9.43315 24.0539V17.9915L12.4644 21.0227L9.43315 24.0539Z" fill="#0061FF"/>
</svg>
