<svg width="24" height="26" viewBox="0 0 24 26" fill="none" xmlns="http://www.w3.org/2000/svg">
<path d="M8.66667 21.8947C8.2711 21.8947 7.88442 22.0151 7.55553 22.2407C7.22663 22.4662 6.97028 22.7868 6.81891 23.1619C6.66753 23.5369 6.62793 23.9496 6.7051 24.3478C6.78227 24.746 6.97275 25.1117 7.25245 25.3988C7.53216 25.6859 7.88852 25.8814 8.27649 25.9606C8.66445 26.0398 9.06658 25.9991 9.43203 25.8438C9.79749 25.6884 10.1098 25.4253 10.3296 25.0877C10.5494 24.7502 10.6667 24.3533 10.6667 23.9474C10.6667 23.403 10.456 22.8809 10.0809 22.4959C9.70581 22.111 9.1971 21.8947 8.66667 21.8947ZM22.6667 17.7895H6.66667C6.31305 17.7895 5.97391 17.6453 5.72386 17.3887C5.47381 17.132 5.33333 16.784 5.33333 16.4211C5.33333 16.0581 5.47381 15.7101 5.72386 15.4534C5.97391 15.1968 6.31305 15.0526 6.66667 15.0526H17.9883C18.8568 15.0498 19.7011 14.7581 20.3946 14.2213C21.088 13.6845 21.5933 12.9316 21.8347 12.0752L23.9486 4.48144C24.0053 4.27778 24.0152 4.06339 23.9774 3.85515C23.9397 3.64691 23.8554 3.4505 23.7311 3.28138C23.6068 3.11226 23.446 2.97506 23.2613 2.88057C23.0766 2.78608 22.8731 2.73688 22.6667 2.73684H6.31876C6.04274 1.93954 5.53392 1.24897 4.86163 0.759219C4.18934 0.269467 3.38628 0.0043526 2.56185 0H1.33333C0.979711 0 0.640573 0.144172 0.390524 0.400801C0.140476 0.65743 0 1.00549 0 1.36842C0 1.73135 0.140476 2.07941 0.390524 2.33604C0.640573 2.59267 0.979711 2.73684 1.33333 2.73684H2.56185C2.8513 2.73788 3.13263 2.83512 3.36371 3.01399C3.5948 3.19286 3.76322 3.44375 3.84375 3.72908L4.05111 4.47452L4.05143 4.48144L6.23893 12.3392C5.22102 12.4516 4.28383 12.9602 3.62035 13.7605C2.95688 14.5607 2.61762 15.5916 2.67244 16.6408C2.72725 17.69 3.17197 18.6777 3.91502 19.4006C4.65806 20.1234 5.64288 20.5263 6.66667 20.5263H22.6667C23.0203 20.5263 23.3594 20.3821 23.6095 20.1255C23.8595 19.8689 24 19.5208 24 19.1579C24 18.795 23.8595 18.4469 23.6095 18.1903C23.3594 17.9336 23.0203 17.7895 22.6667 17.7895ZM20.8991 5.47368L19.2708 11.3229C19.1904 11.6084 19.0219 11.8596 18.7907 12.0386C18.5595 12.2176 18.2779 12.3149 17.9883 12.3158H9.00585L8.66593 11.0949L7.10189 5.47368H20.8991ZM19.3333 21.8947C18.9378 21.8947 18.5511 22.0151 18.2222 22.2407C17.8933 22.4662 17.6369 22.7868 17.4856 23.1619C17.3342 23.5369 17.2946 23.9496 17.3718 24.3478C17.4489 24.746 17.6394 25.1117 17.9191 25.3988C18.1988 25.6859 18.5552 25.8814 18.9432 25.9606C19.3311 26.0398 19.7332 25.9991 20.0987 25.8438C20.4642 25.6884 20.7765 25.4253 20.9963 25.0877C21.216 24.7502 21.3333 24.3533 21.3333 23.9474C21.3333 23.403 21.1226 22.8809 20.7475 22.4959C20.3725 22.111 19.8638 21.8947 19.3333 21.8947Z" fill="black"/>
</svg>
