<svg width="20" height="21" viewBox="0 0 20 21" fill="none" xmlns="http://www.w3.org/2000/svg">
<path d="M13.7134 10.7684C14.6986 9.99325 15.4178 8.93029 15.7708 7.72741C16.1237 6.52452 16.093 5.24151 15.6829 4.0569C15.2727 2.87228 14.5035 1.84495 13.4823 1.11784C12.4611 0.390735 11.2387 0 9.98509 0C8.73148 0 7.50904 0.390735 6.48784 1.11784C5.46664 1.84495 4.69746 2.87228 4.28731 4.0569C3.87716 5.24151 3.84644 6.52452 4.19943 7.72741C4.55241 8.93029 5.27154 9.99325 6.25677 10.7684C4.56856 11.4448 3.09553 12.5666 1.99473 14.0143C0.893922 15.4619 0.20661 17.1812 0.00606162 18.9888C-0.00845511 19.1208 0.00316392 19.2543 0.0402551 19.3818C0.0773462 19.5093 0.139183 19.6282 0.222235 19.7318C0.389967 19.941 0.63393 20.075 0.900456 20.1043C1.16698 20.1336 1.43424 20.0558 1.64343 19.8881C1.85262 19.7204 1.98662 19.4764 2.01594 19.2099C2.23661 17.2454 3.17331 15.4311 4.64708 14.1136C6.12086 12.7961 8.02838 12.0678 10.0052 12.0678C11.982 12.0678 13.8895 12.7961 15.3633 14.1136C16.8371 15.4311 17.7738 17.2454 17.9944 19.2099C18.0218 19.4568 18.1396 19.6849 18.3252 19.85C18.5108 20.0152 18.7509 20.1058 18.9994 20.1043H19.1099C19.3734 20.074 19.6141 19.9408 19.7798 19.7337C19.9454 19.5266 20.0225 19.2625 19.9943 18.9988C19.7928 17.1861 19.1018 15.4625 17.9953 14.0125C16.8888 12.5626 15.4087 11.4412 13.7134 10.7684ZM9.98509 10.0549C9.19006 10.0549 8.41288 9.81914 7.75184 9.37745C7.09079 8.93575 6.57557 8.30795 6.27133 7.57344C5.96708 6.83893 5.88748 6.03069 6.04258 5.25093C6.19768 4.47118 6.58053 3.75493 7.1427 3.19276C7.70487 2.63058 8.42112 2.24774 9.20088 2.09264C9.98063 1.93753 10.7889 2.01714 11.5234 2.32138C12.2579 2.62563 12.8857 3.14085 13.3274 3.80189C13.7691 4.46294 14.0048 5.24012 14.0048 6.03515C14.0048 7.10125 13.5813 8.12369 12.8275 8.87754C12.0736 9.63139 11.0512 10.0549 9.98509 10.0549Z" fill="#424C5D"/>
</svg>
