<svg width="45" height="34" viewBox="0 0 45 34" fill="none" xmlns="http://www.w3.org/2000/svg">
<path d="M18.1551 4.3403L36.9082 18.2856C35.8616 19.6987 36.1538 21.6962 37.567 22.7481L32.4935 29.5641C31.0804 28.5175 29.0829 28.8097 28.0363 30.2228L9.27789 16.2722C10.3298 14.8591 10.0323 12.8616 8.61914 11.815L13.6926 4.99374C15.1057 6.04561 17.0979 5.74811 18.1551 4.3403Z" fill="#65BC6A"/>
<path d="M39.0436 19.8688C39.2774 20.0441 39.3252 20.3788 39.1499 20.6125L37.5667 22.7481C36.1536 21.6963 35.8614 19.6988 36.908 18.2856L39.0436 19.8688ZM32.4933 29.5641L30.9102 31.6997C30.7349 31.9334 30.4002 31.9813 30.1664 31.8059L28.0361 30.2228C29.0827 28.8097 31.0802 28.5175 32.4933 29.5641ZM25.9483 13.4406C28.0627 15.0184 28.5036 18.0147 26.9311 20.1344C25.3533 22.2541 22.3571 22.6897 20.2427 21.1172C18.123 19.5394 17.6821 16.5431 19.2546 14.4288C20.8324 12.3091 23.8286 11.8681 25.9483 13.4406Z" fill="#398F3E"/>
<path d="M20.8743 20.2635C20.9694 20.3341 21.081 20.3687 21.1909 20.3687C21.3535 20.3687 21.5134 20.2948 21.6175 20.1546L22.0686 19.5479C22.1047 19.5532 22.1387 19.5633 22.1753 19.5659C22.2141 19.5686 22.2529 19.5702 22.2912 19.5702C23.1183 19.5702 23.819 18.9284 23.8801 18.0912C23.9003 17.8118 23.8467 17.5318 23.7245 17.2805C23.6687 17.1658 23.5991 17.0579 23.5173 16.9596C23.487 16.9198 23.4514 16.8837 23.4105 16.8534C23.2968 16.7684 23.2224 16.6446 23.2017 16.5043C23.181 16.3641 23.2161 16.2238 23.3011 16.1102C23.3855 15.9965 23.5098 15.9221 23.6501 15.9014C23.7914 15.8812 23.9306 15.9163 24.0448 16.0013C24.1208 16.0576 24.1782 16.1303 24.2153 16.2159C24.2339 16.2589 24.2467 16.3046 24.2536 16.3503C24.2966 16.6409 24.5676 16.8401 24.8566 16.7987C25.1466 16.7556 25.3474 16.4863 25.3049 16.1957C25.2847 16.0581 25.2465 15.9237 25.1912 15.7957C25.153 15.7069 25.0972 15.6283 25.0436 15.5486L25.4223 15.0392C25.5977 14.8038 25.5488 14.4713 25.3129 14.2959C25.0781 14.1212 24.745 14.1695 24.5697 14.4054L24.1952 14.909C23.971 14.8394 23.734 14.815 23.496 14.8506C23.0747 14.9127 22.7029 15.1348 22.4489 15.4764C21.94 16.1612 22.0632 17.1238 22.7167 17.6593C22.7369 17.6864 22.7544 17.7151 22.7693 17.7453C22.8102 17.8298 22.8277 17.9207 22.8208 18.0152C22.7996 18.3074 22.5371 18.5284 22.2529 18.5066C22.1111 18.4965 21.982 18.4317 21.8895 18.3244C21.7966 18.2171 21.7509 18.08 21.7615 17.9387C21.7828 17.646 21.5623 17.3915 21.2701 17.3703C20.9662 17.3506 20.7229 17.5695 20.7017 17.8617C20.6708 18.2862 20.8074 18.6973 21.0863 19.0193C21.0958 19.0304 21.1075 19.0379 21.1171 19.0485L20.7665 19.5203C20.5896 19.7561 20.6384 20.0887 20.8743 20.2635ZM9.27766 16.2722L24.057 27.2638H24.0517L9.60703 22.6684C10.1436 20.9897 9.21391 19.1994 7.53516 18.6628L8.12484 16.8088L8.48078 15.6825L9.27766 16.2722Z" fill="#65BC6A"/>
<path d="M24.0515 27.2637L18.8612 25.6116L8.21492 17.6959L7.91211 17.4728L8.12461 16.8087L8.48055 15.6825L9.27742 16.2722L24.0515 27.2637Z" fill="#398F3E"/>
<path d="M25.2578 28.1562H11.3125C11.3125 26.3978 9.88344 24.9687 8.125 24.9687V22.1956L9.60719 22.6684L24.0519 27.2637H24.0572L25.2578 28.1562Z" fill="#65BC6A"/>
<path d="M25.2578 28.1562H21.8472L9.60719 24.2622L8.125 23.7894V22.1956L9.60719 22.6684L24.0519 27.2637H24.0572L25.2578 28.1562Z" fill="#29752B"/>
<path d="M37.8749 24.9688V27.625C37.8749 27.9172 37.6358 28.1562 37.3436 28.1562H35.7393L35.888 27.6834L36.6796 25.2025C37.0461 25.0484 37.4499 24.9688 37.8749 24.9688Z" fill="#236823"/>
<path d="M37.875 22.3284V24.9687C37.45 24.9687 37.0462 25.0484 36.6797 25.2025L37.3809 22.9978V22.9925L37.5669 22.7481L37.875 22.3284Z" fill="#29752B"/>
<path d="M37.3812 22.9978L36.68 25.2025L35.8884 27.6834C35.5112 27.5612 35.1234 27.5187 34.7462 27.54C34.4487 27.5559 34.1566 27.6144 33.875 27.71L37.3812 22.9978Z" fill="#65BC6A"/>
<path d="M35.8878 27.6834L35.739 28.1562L35.0803 30.2175C34.9953 30.4937 34.6925 30.6478 34.4162 30.5628L32.2646 29.8775L32.4931 29.5641L33.8743 27.71C34.1559 27.6144 34.4481 27.5559 34.7456 27.54C35.1228 27.5188 35.5106 27.5613 35.8878 27.6834ZM37.8746 13.8125V16.0544L36.8175 15.7144L35.3778 15.2575H35.3725C34.9421 14.7156 34.6871 14.0303 34.6871 13.2812H37.3434C37.6356 13.2812 37.8746 13.5203 37.8746 13.8125Z" fill="#398F3E"/>
<path d="M35.3729 15.2575L30.9476 13.8497H30.9423L30.1826 13.2812H34.6876C34.6876 14.0303 34.9426 14.7156 35.3729 15.2575Z" fill="#65BC6A"/>
<path d="M11.6687 7.71374L10.5371 9.23843V9.23311L11.079 7.5278L11.6687 7.71374Z" fill="#398F3E"/>
<path d="M11.3122 28.1562H8.65591C8.36372 28.1562 8.12466 27.9172 8.12466 27.625V24.9687C9.8831 24.9687 11.3122 26.3978 11.3122 28.1562ZM7.53497 18.6628C9.21372 19.1994 10.1434 20.9897 9.60685 22.6684L8.12466 22.1956L7.07278 21.8609C6.79653 21.7759 6.64247 21.4731 6.72747 21.1969L7.53497 18.6628ZM18.1547 4.335V4.34031C17.0975 5.74812 15.1053 6.04562 13.6922 4.99375L15.2806 2.86344C15.4506 2.62437 15.7853 2.57656 16.019 2.75187L18.1547 4.335ZM8.61872 11.815C10.0318 12.8616 10.3293 14.8591 9.27747 16.2722L7.14716 14.6891C6.9081 14.5137 6.86028 14.1791 7.0356 13.9453L8.61872 11.815Z" fill="#398F3E"/>
<path d="M36.8016 15.7622C36.5732 16.3838 36.536 17.3772 36.6795 18.1103L30.9473 13.8497L35.3726 15.2575H35.3779L36.8176 15.7144L36.8016 15.7622Z" fill="#65BC6A"/>
<path d="M36.68 18.1103C36.5366 17.3772 36.5737 16.3838 36.8022 15.7622L36.8181 15.7144L37.8753 16.0544L38.9272 16.3891C39.2034 16.4741 39.3575 16.7769 39.2725 17.0531L38.5022 19.465L36.9084 18.2856L36.68 18.1103ZM37.3812 22.9978L36.68 25.2025L35.8884 27.6834C35.5112 27.5613 35.1234 27.5188 34.7462 27.54C34.4487 27.5559 34.1566 27.6144 33.875 27.71L37.3812 22.9978Z" fill="#398F3E"/>
<path d="M34.7456 27.54C34.4481 27.5559 34.1559 27.6144 33.8743 27.71L32.9553 28.9478L32.4931 29.5641L32.2646 29.8775L33.9806 30.4247L34.4162 30.5628C34.6925 30.6478 34.9953 30.4938 35.0803 30.2175L35.739 28.1563L35.7922 27.9863L35.8878 27.6834C35.5106 27.5613 35.1228 27.5188 34.7456 27.54Z" fill="#29752B"/>
<path d="M35.9309 15.4328L35.3784 15.2575H35.3731C35.2562 15.1141 35.1553 14.96 35.0703 14.7953L35.9309 15.4328Z" fill="#236823"/>
<path d="M35.3729 15.2575L30.9476 13.8497H30.9423L30.1826 13.2812H33.0354L35.0701 14.7953C35.1551 14.96 35.2561 15.1141 35.3729 15.2575Z" fill="#29752B"/>
<path d="M36.6157 16.6388C36.6423 16.421 36.6741 16.2085 36.722 16.0225L35.9304 15.4328L35.3779 15.2575H35.3726L30.9473 13.8497L36.2916 17.8235L36.6795 18.1103C36.5945 17.6694 36.5732 17.1328 36.6157 16.6388Z" fill="#398F3E"/>
<path d="M38.4541 19.4278L38.5604 19.2844L38.5019 19.465L38.4541 19.4278Z" fill="#398F3E"/>
<path d="M39.0438 17.7437L36.9082 16.1606L36.7222 16.0225C36.6744 16.2084 36.6425 16.4209 36.616 16.6387C36.5735 17.1328 36.5947 17.6694 36.6797 18.1103L36.9082 18.2856L38.4541 19.4278L38.5604 19.2844L39.0491 17.7491L39.0438 17.7437Z" fill="#29752B"/>
</svg>
