<svg width="20" height="34" viewBox="0 0 20 34" fill="none" xmlns="http://www.w3.org/2000/svg">
<g clip-path="url(#clip0_614_11174)">
<path fill-rule="evenodd" clip-rule="evenodd" d="M16.9671 6.375C16.9671 6.375 16.1983 6.26981 15.9067 5.3125L14.9639 1.0625C14.9639 0.474938 14.4815 0 13.8866 0H5.26845C4.67355 0 4.19105 0.474938 4.19105 1.0625L3.18152 5.3125C2.89839 6.53544 2.12109 6.375 2.12109 6.375V7.4375H16.9671V6.375C16.7836 6.358 16.9671 6.375 16.9671 6.375ZM2.12109 27.625C2.30455 27.642 2.12109 27.625 2.12109 27.625C2.12109 27.625 2.8899 27.7291 3.18152 28.6875L4.12424 32.9375C4.12424 33.524 4.60674 34 5.20164 34H13.8197C14.4157 34 14.8982 33.524 14.8982 32.9375L15.9067 28.6875C16.1898 27.4646 16.9671 27.625 16.9671 27.625V26.5625H2.12109V27.625Z" fill="#D6DAE2"/>
<path d="M15.9064 6.375H3.18129C1.42416 6.375 0 7.80194 0 9.5625V24.4375C0 26.197 1.42416 27.625 3.18129 27.625H15.9064C17.6625 27.625 19.0877 26.197 19.0877 24.4375V9.5625C19.0877 7.80194 17.6625 6.375 15.9064 6.375Z" fill="#333333"/>
<path d="M16.9593 9.56464H2.13135V24.4343H16.9593V9.56464Z" fill="#4D4D4D"/>
<path d="M9.54371 19.125C10.715 19.125 11.6646 18.1736 11.6646 17C11.6646 15.8264 10.715 14.875 9.54371 14.875C8.37239 14.875 7.42285 15.8264 7.42285 17C7.42285 18.1736 8.37239 19.125 9.54371 19.125Z" fill="#EAF1F6"/>
<path d="M11.6649 13.8125C12.2506 13.8125 12.7253 13.3368 12.7253 12.75C12.7253 12.1632 12.2506 11.6875 11.6649 11.6875C11.0793 11.6875 10.6045 12.1632 10.6045 12.75C10.6045 13.3368 11.0793 13.8125 11.6649 13.8125Z" fill="#48A0DC"/>
<path d="M11.6649 22.3125C12.2506 22.3125 12.7253 21.8368 12.7253 21.25C12.7253 20.6632 12.2506 20.1875 11.6649 20.1875C11.0793 20.1875 10.6045 20.6632 10.6045 21.25C10.6045 21.8368 11.0793 22.3125 11.6649 22.3125Z" fill="#FFCC66"/>
<path d="M13.7855 18.0625C14.3712 18.0625 14.846 17.5868 14.846 17C14.846 16.4132 14.3712 15.9375 13.7855 15.9375C13.1999 15.9375 12.7251 16.4132 12.7251 17C12.7251 17.5868 13.1999 18.0625 13.7855 18.0625Z" fill="#88C057"/>
<path d="M5.30213 18.0625C5.88779 18.0625 6.36256 17.5868 6.36256 17C6.36256 16.4132 5.88779 15.9375 5.30213 15.9375C4.71647 15.9375 4.2417 16.4132 4.2417 17C4.2417 17.5868 4.71647 18.0625 5.30213 18.0625Z" fill="#9B7CAB"/>
<path d="M7.42322 13.8125C8.00888 13.8125 8.48365 13.3368 8.48365 12.75C8.48365 12.1632 8.00888 11.6875 7.42322 11.6875C6.83756 11.6875 6.36279 12.1632 6.36279 12.75C6.36279 13.3368 6.83756 13.8125 7.42322 13.8125Z" fill="#FF8833"/>
<path d="M7.42322 22.3125C8.00888 22.3125 8.48365 21.8368 8.48365 21.25C8.48365 20.6632 8.00888 20.1875 7.42322 20.1875C6.83756 20.1875 6.36279 20.6632 6.36279 21.25C6.36279 21.8368 6.83756 22.3125 7.42322 22.3125Z" fill="#F06EAA"/>
</g>
<defs>
<clipPath id="clip0_614_11174">
<rect width="19.0877" height="34" fill="white"/>
</clipPath>
</defs>
</svg>
