<svg width="32" height="28" viewBox="0 0 32 28" fill="none" xmlns="http://www.w3.org/2000/svg">
<path fill-rule="evenodd" clip-rule="evenodd" d="M11.1464 18.8536C11.3417 19.0488 11.6583 19.0488 11.8536 18.8536L14.5472 16.1599C15.2245 16.6865 16.0756 17 17 17C19.2091 17 21 15.2091 21 13C21 10.7909 19.2091 9 17 9C14.7909 9 13 10.7909 13 13C13 13.9244 13.3135 14.7755 13.8401 15.4528L11.1464 18.1464C10.9512 18.3417 10.9512 18.6583 11.1464 18.8536ZM17 16C18.6569 16 20 14.6569 20 13C20 11.3431 18.6569 10 17 10C15.3431 10 14 11.3431 14 13C14 14.6569 15.3431 16 17 16Z" fill="#090B0D"/>
</svg>
