<svg width="20" height="21" viewBox="0 0 20 21" fill="none" xmlns="http://www.w3.org/2000/svg">
<path d="M18.3663 10.8521C18.2031 10.6664 18.1131 10.4276 18.1131 10.1803C18.1131 9.93306 18.2031 9.69426 18.3663 9.5085L19.6692 8.04274C19.8128 7.88259 19.9019 7.68108 19.9239 7.46712C19.9458 7.25317 19.8994 7.03776 19.7913 6.8518L17.7556 3.32989C17.6486 3.14415 17.4857 2.99692 17.2901 2.90918C17.0946 2.82145 16.8763 2.7977 16.6664 2.8413L14.7528 3.2281C14.5093 3.27842 14.2558 3.23786 14.0401 3.1141C13.8245 2.99034 13.6616 2.79192 13.5822 2.5563L12.9613 0.693551C12.893 0.491376 12.7629 0.315776 12.5894 0.191569C12.4159 0.067363 12.2077 0.000833447 11.9943 0.00138429H7.92272C7.70075 -0.0102014 7.48109 0.0511861 7.29729 0.176171C7.11349 0.301155 6.97565 0.482867 6.90482 0.693551L6.3348 2.5563C6.25541 2.79192 6.09252 2.99034 5.87687 3.1141C5.66122 3.23786 5.40773 3.27842 5.16423 3.2281L3.1997 2.8413C3.00075 2.81319 2.79793 2.84458 2.6168 2.93153C2.43566 3.01848 2.28431 3.15708 2.1818 3.32989L0.146018 6.8518C0.0352303 7.03568 -0.0145833 7.24988 0.00369856 7.46378C0.0219804 7.67768 0.107422 7.88032 0.247807 8.04274L1.54053 9.5085C1.70372 9.69426 1.79372 9.93306 1.79372 10.1803C1.79372 10.4276 1.70372 10.6664 1.54053 10.8521L0.247807 12.3179C0.107422 12.4803 0.0219804 12.6829 0.00369856 12.8968C-0.0145833 13.1107 0.0352303 13.3249 0.146018 13.5088L2.1818 17.0307C2.28878 17.2165 2.45167 17.3637 2.64724 17.4514C2.84281 17.5392 3.06108 17.5629 3.27095 17.5193L5.18459 17.1325C5.42808 17.0822 5.68158 17.1228 5.89723 17.2465C6.11288 17.3703 6.27577 17.5687 6.35516 17.8043L6.97608 19.6671C7.0469 19.8778 7.18474 20.0595 7.36854 20.1844C7.55234 20.3094 7.772 20.3708 7.99397 20.3592H12.0655C12.2789 20.3598 12.4871 20.2933 12.6606 20.1691C12.8342 20.0448 12.9643 19.8692 13.0325 19.6671L13.6535 17.8043C13.7328 17.5687 13.8957 17.3703 14.1114 17.2465C14.327 17.1228 14.5805 17.0822 14.824 17.1325L16.7377 17.5193C16.9475 17.5629 17.1658 17.5392 17.3614 17.4514C17.557 17.3637 17.7198 17.2165 17.8268 17.0307L19.8626 13.5088C19.9707 13.3229 20.0171 13.1075 19.9951 12.8935C19.9732 12.6795 19.884 12.478 19.7405 12.3179L18.3663 10.8521ZM16.8496 12.2161L17.6639 13.1322L16.361 15.3919L15.1599 15.1476C14.4268 14.9978 13.6642 15.1223 13.0169 15.4976C12.3695 15.8729 11.8825 16.4728 11.6482 17.1834L11.2614 18.3235H8.6556L8.28916 17.1631C8.0549 16.4524 7.56786 15.8525 6.92051 15.4772C6.27315 15.1019 5.51054 14.9774 4.77743 15.1273L3.57632 15.3716L2.25306 13.122L3.06737 12.2059C3.56813 11.6461 3.84497 10.9213 3.84497 10.1701C3.84497 9.419 3.56813 8.69421 3.06737 8.13435L2.25306 7.21824L3.55596 4.97888L4.75707 5.22317C5.49018 5.37303 6.25279 5.2485 6.90015 4.87322C7.5475 4.49794 8.03454 3.89804 8.2688 3.18739L8.6556 2.03717H11.2614L11.6482 3.19757C11.8825 3.90822 12.3695 4.50812 13.0169 4.8834C13.6642 5.25868 14.4268 5.38321 15.1599 5.23335L16.361 4.98906L17.6639 7.24878L16.8496 8.16488C16.3545 8.72346 16.0811 9.44405 16.0811 10.1905C16.0811 10.9369 16.3545 11.6575 16.8496 12.2161ZM9.9585 6.10874C9.15322 6.10874 8.36603 6.34753 7.69646 6.79492C7.02689 7.24231 6.50503 7.87821 6.19686 8.62219C5.88869 9.36617 5.80806 10.1848 5.96517 10.9746C6.12227 11.7644 6.51005 12.4899 7.07947 13.0593C7.64889 13.6288 8.37437 14.0165 9.16418 14.1736C9.95399 14.3307 10.7726 14.2501 11.5166 13.942C12.2606 13.6338 12.8965 13.1119 13.3439 12.4424C13.7913 11.7728 14.0301 10.9856 14.0301 10.1803C14.0301 9.10046 13.6011 8.06484 12.8375 7.30128C12.074 6.53771 11.0384 6.10874 9.9585 6.10874ZM9.9585 12.2161C9.55586 12.2161 9.16226 12.0967 8.82748 11.873C8.4927 11.6493 8.23177 11.3314 8.07768 10.9594C7.9236 10.5874 7.88328 10.1781 7.96183 9.78315C8.04039 9.38824 8.23428 9.0255 8.51898 8.74079C8.80369 8.45608 9.16644 8.26219 9.56134 8.18364C9.95624 8.10509 10.3656 8.14541 10.7376 8.29949C11.1096 8.45357 11.4275 8.71451 11.6512 9.04929C11.8749 9.38407 11.9943 9.77767 11.9943 10.1803C11.9943 10.7202 11.7798 11.238 11.398 11.6198C11.0162 12.0016 10.4984 12.2161 9.9585 12.2161Z" fill="#262B35"/>
</svg>
