<svg width="45" height="18" viewBox="0 0 45 18" fill="none" xmlns="http://www.w3.org/2000/svg">
<path fill-rule="evenodd" clip-rule="evenodd" d="M20.7366 14.0798V8.79745H23.5408C24.6899 8.79745 25.6598 8.42311 26.4505 7.68483L26.6402 7.49766C28.0845 5.96911 27.9896 3.5879 26.4505 2.17373C25.6809 1.42505 24.6267 1.01952 23.5408 1.04031H19.0393V14.0798H20.7366ZM20.7373 7.19613V2.64167H23.5842C24.1957 2.64167 24.7756 2.87043 25.2079 3.28636C26.1252 4.15982 26.1463 5.61558 25.2606 6.52024C24.8283 6.96736 24.2168 7.21692 23.5842 7.19613H20.7373ZM34.558 5.85474C33.8306 5.19965 32.8396 4.8669 31.5851 4.8669C29.9721 4.8669 28.7598 5.44921 27.9586 6.60342L29.4556 7.52887C30.0037 6.7386 30.7522 6.34346 31.701 6.34346C32.3019 6.34346 32.8818 6.56183 33.3351 6.95696C33.7778 7.3313 34.0309 7.87202 34.0309 8.44392V8.82866C33.3772 8.47512 32.555 8.28795 31.5429 8.28795C30.3622 8.28795 29.4134 8.5583 28.7071 9.10941C28.0007 9.66052 27.6423 10.3884 27.6423 11.3139C27.6212 12.1561 27.9902 12.9568 28.6438 13.4975C29.308 14.0798 30.1513 14.371 31.1423 14.371C32.3125 14.371 33.2402 13.8614 33.9465 12.8424H34.0203V14.0798H35.6438V8.5791C35.6438 7.42489 35.2854 6.50984 34.558 5.85474ZM29.95 12.4368C29.602 12.1873 29.3912 11.7817 29.3912 11.345C29.3912 10.8563 29.6231 10.4507 30.0765 10.1284C30.5404 9.80604 31.1204 9.63967 31.8057 9.63967C32.7547 9.62927 33.4927 9.83724 34.0199 10.2532C34.0199 10.9603 33.7352 11.5738 33.1764 12.0937C32.6703 12.5928 31.985 12.8735 31.268 12.8735C30.7935 12.8839 30.3296 12.728 29.95 12.4368ZM39.291 18L44.9626 5.15809H43.1178L40.4928 11.5634H40.4611L37.7729 5.15809H35.928L39.6494 13.5079L37.541 18H39.291Z" fill="#3C4043"/>
<path d="M14.8786 7.65359C14.8786 7.14407 14.8364 6.63456 14.7521 6.13544H7.59394V9.01577H11.6948C11.5262 9.94122 10.978 10.7731 10.1768 11.293V13.1647H12.6226C14.0563 11.8649 14.8786 9.94122 14.8786 7.65359Z" fill="#4285F4"/>
<path d="M7.59283 14.974C9.63801 14.974 11.3669 14.3085 12.6214 13.1647L10.1757 11.293C9.49042 11.7505 8.61542 12.0105 7.59283 12.0105C5.6109 12.0105 3.9347 10.6899 3.33379 8.92216H0.814216V10.8562C2.10036 13.383 4.72536 14.974 7.59283 14.974Z" fill="#34A853"/>
<path d="M3.33449 8.92222C3.01818 7.99677 3.01818 6.98813 3.33449 6.05229V4.1286H0.814512C-0.271504 6.23946 -0.271504 8.73505 0.814512 10.8459L3.33449 8.92222Z" fill="#FBBC04"/>
<path d="M7.59283 2.96397C8.67867 2.94317 9.72235 3.34871 10.5025 4.08699L12.6742 1.94494C11.2931 0.676343 9.47988 -0.0203441 7.59283 0.000452545C4.72536 0.000452545 2.10036 1.60179 0.814216 4.12858L3.33379 6.06267C3.9347 4.28456 5.6109 2.96397 7.59283 2.96397Z" fill="#EA4335"/>
</svg>
