<svg width="163" height="36" viewBox="0 0 163 36" fill="none" xmlns="http://www.w3.org/2000/svg">
<path d="M51.0704 10.8101C55.0069 10.8101 58.2087 13.9294 58.2087 17.7644C58.2087 21.5995 55.0069 24.7188 51.0704 24.7188H46.1756V10.8101H51.0704ZM51.0704 6.82879H44.335C43.108 6.82879 42.089 7.81898 42.089 9.01695V26.5145C42.089 27.7099 43.1054 28.7026 44.335 28.7026H51.0704C57.2792 28.7026 62.2952 23.8158 62.2952 17.767C62.2952 11.7181 57.2792 6.82879 51.0704 6.82879Z" fill="black"/>
<path d="M82.0045 26.7144C82.0045 27.8021 81.0803 28.7025 79.9638 28.7025C78.8474 28.7025 77.9232 27.8021 77.9232 26.7144V20.7503C77.9232 18.5441 76.1064 16.7741 73.8419 16.7741C71.5775 16.7741 69.7607 18.5441 69.7607 20.7503V26.7144C69.7607 27.8021 68.8365 28.7025 67.72 28.7025C66.6036 28.7025 65.6794 27.8021 65.6794 26.7144V8.81931C65.6794 7.73164 66.6036 6.83124 67.72 6.83124C68.8365 6.83124 69.7607 7.73164 69.7607 8.81931V13.8831C70.9403 13.2007 72.3437 12.7954 73.8419 12.7954C78.3366 12.7954 82.0045 16.3688 82.0045 20.7477V26.7144Z" fill="black"/>
<path d="M90.0414 26.7143C90.0414 27.802 89.1172 28.7024 88.0008 28.7024C86.8844 28.7024 85.9602 27.802 85.9602 26.7143V14.7859C85.9602 13.6983 86.8844 12.7979 88.0008 12.7979C89.1172 12.7979 90.0414 13.6983 90.0414 14.7859V26.7143Z" fill="black"/>
<path d="M116.953 26.7144C116.953 27.8021 116.029 28.7025 114.913 28.7025C114.37 28.7025 113.86 28.4845 113.478 28.1125L105.729 20.563L97.9821 28.1125C97.6003 28.4845 97.0895 28.7025 96.5471 28.7025C95.4306 28.7025 94.5064 27.8021 94.5064 26.7144V8.81931C94.5064 7.73164 95.4306 6.83124 96.5471 6.83124C97.6635 6.83124 98.5877 7.73164 98.5877 8.81931V21.9303L104.296 16.3688C104.678 15.9661 105.22 15.7788 105.731 15.7788C106.242 15.7788 106.784 15.9661 107.166 16.3688L112.875 21.9303V8.81931C112.875 7.73164 113.799 6.83124 114.915 6.83124C116.032 6.83124 116.956 7.73164 116.956 8.81931V26.7144H116.953Z" fill="black"/>
<path d="M125.499 26.7143C125.499 27.802 124.575 28.7024 123.459 28.7024C122.342 28.7024 121.418 27.802 121.418 26.7143V14.7859C121.418 13.6983 122.342 12.7979 123.459 12.7979C124.575 12.7979 125.499 13.6983 125.499 14.7859V26.7143Z" fill="black"/>
<path d="M138.639 24.7265C139.213 24.7265 139.658 24.293 139.658 23.7312C139.658 23.1694 139.213 22.7359 138.639 22.7359H134.558C131.751 22.7359 129.455 20.499 129.455 17.7644C129.455 15.0299 131.751 12.793 134.558 12.793H140.68C141.796 12.793 142.721 13.6934 142.721 14.781C142.721 15.8687 141.796 16.7691 140.68 16.7691H134.558C133.984 16.7691 133.537 17.2026 133.537 17.7644C133.537 18.3262 133.982 18.7597 134.558 18.7597H138.639C141.446 18.7597 143.74 20.9966 143.74 23.7312C143.74 26.4657 141.444 28.7026 138.639 28.7026H131.496C130.379 28.7026 129.455 27.8022 129.455 26.7145C129.455 25.6269 130.379 24.7265 131.496 24.7265H138.639Z" fill="black"/>
<path d="M154.838 28.7024C150.34 28.7024 146.675 25.129 146.675 20.7501C146.675 16.3713 150.34 12.7979 154.838 12.7979C159.332 12.7979 163 16.3713 163 20.7501C163 21.8378 162.076 22.7382 160.96 22.7382H151.296C151.999 23.949 153.305 24.7263 154.835 24.7263H156.876C157.992 24.7263 158.916 25.6267 158.916 26.7143C158.916 27.802 157.992 28.7024 156.876 28.7024H154.838ZM151.296 18.7595H158.374C157.673 17.5795 156.333 16.7714 154.835 16.7714C153.305 16.7714 151.999 17.5795 151.296 18.7595Z" fill="black"/>
<path d="M87.9997 11.305C89.2677 11.305 90.2957 10.3035 90.2957 9.06813C90.2957 7.83273 89.2677 6.83124 87.9997 6.83124C86.7316 6.83124 85.7036 7.83273 85.7036 9.06813C85.7036 10.3035 86.7316 11.305 87.9997 11.305Z" fill="url(#paint0_linear_102_31094)"/>
<path d="M123.46 11.305C124.728 11.305 125.756 10.3035 125.756 9.06813C125.756 7.83273 124.728 6.83124 123.46 6.83124C122.192 6.83124 121.164 7.83273 121.164 9.06813C121.164 10.3035 122.192 11.305 123.46 11.305Z" fill="url(#paint1_linear_102_31094)"/>
<path d="M25.4302 0H2.3408C1.04796 0 0 1.02097 0 2.2805V27.1326C0 28.0561 0.571377 28.8872 1.44556 29.2386C2.31711 29.5901 3.32557 29.3951 3.99701 28.7436L15.2692 17.7617C16.1829 16.8716 16.1829 15.4274 15.2692 14.5372C14.3555 13.6471 12.8731 13.6471 11.9594 14.5372L4.68161 21.6276V4.561H25.4329C28.9375 4.561 31.7865 7.33916 31.7865 10.7509V24.7751C31.7865 28.1895 28.9349 30.9651 25.4329 30.9651H14.2686L21.5464 23.8747C22.4601 22.9846 22.4601 21.5403 21.5464 20.6502C20.6328 19.7601 19.1503 19.7601 18.2367 20.6502L6.96185 31.6346C6.29305 32.2862 6.09293 33.2686 6.45367 34.1203C6.81703 34.972 7.67015 35.5286 8.61542 35.5286H25.4276C31.5126 35.5286 36.4628 30.706 36.4628 24.7777V10.7535C36.4681 4.82522 31.5179 0 25.4302 0Z" fill="url(#paint2_linear_102_31094)"/>
<path d="M25.3326 19.2444C26.6255 19.2444 27.6734 18.2234 27.6734 16.9639V10.8483C27.6734 9.58878 26.6255 8.56782 25.3326 8.56782H19.0554C17.7625 8.56782 16.7146 9.58878 16.7146 10.8483C16.7146 12.1079 17.7625 13.1288 19.0554 13.1288H22.9918V16.9639C22.9918 18.2234 24.0398 19.2444 25.3326 19.2444Z" fill="url(#paint3_linear_102_31094)"/>
<defs>
<linearGradient id="paint0_linear_102_31094" x1="85.7043" y1="9.06724" x2="90.2952" y2="9.06724" gradientUnits="userSpaceOnUse">
<stop stop-color="#0068FF"/>
<stop offset="1" stop-color="#0000E1"/>
</linearGradient>
<linearGradient id="paint1_linear_102_31094" x1="121.164" y1="9.06724" x2="125.755" y2="9.06724" gradientUnits="userSpaceOnUse">
<stop stop-color="#FF9852"/>
<stop offset="0.2774" stop-color="#FF8A3A"/>
<stop offset="1" stop-color="#FF6700"/>
</linearGradient>
<linearGradient id="paint2_linear_102_31094" x1="22.8398" y1="10.7934" x2="3.74923" y2="30.3888" gradientUnits="userSpaceOnUse">
<stop stop-color="#0068FF"/>
<stop offset="1" stop-color="#0000E1"/>
</linearGradient>
<linearGradient id="paint3_linear_102_31094" x1="27.4646" y1="8.77224" x2="20.4998" y2="15.9212" gradientUnits="userSpaceOnUse">
<stop stop-color="#FF9852"/>
<stop offset="0.2774" stop-color="#FF8A3A"/>
<stop offset="1" stop-color="#FF6700"/>
</linearGradient>
</defs>
</svg>
