<svg width="22" height="27" viewBox="0 0 22 27" fill="none" xmlns="http://www.w3.org/2000/svg">
<path d="M18.9463 15.1299V10.8264C18.9443 8.90897 18.2639 7.05405 17.0254 5.59019C15.7869 4.12633 14.0704 3.14798 12.1797 2.82841V1.3533C12.1797 0.994385 12.0372 0.650167 11.7834 0.396374C11.5296 0.14258 11.1854 0 10.8264 0C10.4675 0 10.1233 0.14258 9.8695 0.396374C9.61571 0.650167 9.47313 0.994385 9.47313 1.3533V2.82841C7.58248 3.14798 5.86593 4.12633 4.62747 5.59019C3.38901 7.05405 2.70855 8.90897 2.70661 10.8264V15.1299C1.91689 15.4091 1.23286 15.9258 0.748294 16.609C0.26373 17.2922 0.00235409 18.1086 0 18.9463V21.6529C0 22.0118 0.14258 22.356 0.396374 22.6098C0.650168 22.8636 0.994385 23.0062 1.3533 23.0062H5.60268C5.91432 24.1529 6.59465 25.1653 7.53871 25.887C8.48277 26.6087 9.63809 26.9998 10.8264 26.9998C12.0148 26.9998 13.1701 26.6087 14.1142 25.887C15.0582 25.1653 15.7385 24.1529 16.0502 23.0062H20.2996C20.6585 23.0062 21.0027 22.8636 21.2565 22.6098C21.5103 22.356 21.6529 22.0118 21.6529 21.6529V18.9463C21.6505 18.1086 21.3891 17.2922 20.9046 16.609C20.42 15.9258 19.736 15.4091 18.9463 15.1299ZM5.41322 10.8264C5.41322 9.39076 5.98353 8.01389 6.99871 6.99871C8.01388 5.98354 9.39076 5.41322 10.8264 5.41322C12.2621 5.41322 13.639 5.98354 14.6542 6.99871C15.6693 8.01389 16.2396 9.39076 16.2396 10.8264V14.8863H5.41322V10.8264ZM10.8264 24.3595C10.3541 24.3566 9.89072 24.2302 9.48237 23.9928C9.07402 23.7554 8.73491 23.4152 8.49875 23.0062H13.1541C12.9179 23.4152 12.5788 23.7554 12.1705 23.9928C11.7621 24.2302 11.2988 24.3566 10.8264 24.3595ZM18.9463 20.2996H2.70661V18.9463C2.70661 18.5873 2.84919 18.2431 3.10298 17.9893C3.35678 17.7355 3.70099 17.593 4.05991 17.593H17.593C17.9519 17.593 18.2961 17.7355 18.5499 17.9893C18.8037 18.2431 18.9463 18.5873 18.9463 18.9463V20.2996Z" fill="#424C5D"/>
</svg>
