<svg width="21" height="20" viewBox="0 0 21 20" fill="none" xmlns="http://www.w3.org/2000/svg">
<path d="M20.9093 7.56542C20.8433 7.37413 20.7231 7.20611 20.5635 7.08174C20.4038 6.95737 20.2116 6.88199 20.0099 6.86474L14.0593 5.99672L11.3925 0.589945C11.3069 0.413131 11.1732 0.264014 11.0067 0.159676C10.8403 0.0553384 10.6478 0 10.4513 0C10.2549 0 10.0624 0.0553384 9.89591 0.159676C9.72945 0.264014 9.59574 0.413131 9.5101 0.589945L6.84332 5.98626L0.892725 6.86474C0.699171 6.89225 0.517204 6.97346 0.367473 7.09916C0.217742 7.22486 0.106242 7.39001 0.045628 7.57588C-0.00985691 7.75751 -0.014836 7.95082 0.031225 8.13506C0.0772859 8.3193 0.172648 8.48753 0.307078 8.62168L4.62622 12.8049L3.58043 18.745C3.54309 18.9411 3.56264 19.1437 3.63677 19.329C3.71089 19.5143 3.83649 19.6746 3.99875 19.7908C4.15689 19.9039 4.34341 19.9706 4.53738 19.9835C4.73135 19.9965 4.92508 19.9551 5.09683 19.864L10.4513 17.0717L15.7849 19.8745C15.9317 19.9573 16.0974 20.0005 16.266 20C16.4875 20.0008 16.7035 19.9312 16.883 19.8013C17.0452 19.685 17.1708 19.5248 17.245 19.3395C17.3191 19.1542 17.3386 18.9515 17.3013 18.7555L16.2555 12.8153L20.5746 8.63213C20.7256 8.50421 20.8372 8.33607 20.8965 8.14725C20.9557 7.95843 20.9602 7.75667 20.9093 7.56542ZM14.4776 11.7486C14.355 11.8672 14.2632 12.0141 14.2104 12.1763C14.1575 12.3386 14.1451 12.5113 14.1744 12.6794L14.9273 17.0613L10.9951 14.9697C10.8438 14.8891 10.675 14.847 10.5036 14.847C10.3322 14.847 10.1634 14.8891 10.0121 14.9697L6.07988 17.0613L6.83286 12.6794C6.86207 12.5113 6.84971 12.3386 6.79685 12.1763C6.74398 12.0141 6.65223 11.8672 6.52958 11.7486L3.39218 8.61122L7.79499 7.97328C7.96441 7.94972 8.12546 7.88495 8.26403 7.78467C8.4026 7.68439 8.51446 7.55166 8.5898 7.39809L10.4513 3.4136L12.4174 7.40855C12.4928 7.56211 12.6046 7.69485 12.7432 7.79513C12.8818 7.89541 13.0428 7.96017 13.2122 7.98374L17.615 8.62168L14.4776 11.7486Z" fill="#424C5D"/>
</svg>
