<svg width="45" height="15" viewBox="0 0 45 15" fill="none" xmlns="http://www.w3.org/2000/svg">
<path d="M44.8481 4.41802C44.4396 3.17774 43.3264 2.2871 42.0189 2.2871H41.9916C41.1416 2.2871 40.3756 2.66279 39.8304 3.2659C39.2842 2.66279 38.5181 2.2871 37.6691 2.2871H37.6418C36.8946 2.2871 36.2116 2.57763 35.6871 3.05852V2.81407C35.6692 2.57062 35.4805 2.37927 35.2475 2.37927H33.242C32.9967 2.37927 32.7986 2.58965 32.7986 2.85114V14.4174C32.7986 14.6789 32.9967 14.8893 33.242 14.8893H35.2475C35.4711 14.8893 35.6551 14.712 35.6843 14.4825L35.6834 6.17926C35.6834 6.15021 35.6843 6.12315 35.6871 6.09611C35.7192 5.72542 35.9749 5.42086 36.3786 5.38279H36.4531H36.6635H36.7484C36.9173 5.39882 37.0597 5.46194 37.172 5.55711C37.3465 5.70439 37.4437 5.9308 37.4437 6.17926L37.4512 14.4415C37.4512 14.7029 37.6503 14.9143 37.8946 14.9143H39.9002C40.1369 14.9143 40.3294 14.714 40.3407 14.4645L40.3398 6.16824C40.3388 5.89574 40.4577 5.64928 40.6662 5.50301C40.769 5.43289 40.8926 5.3858 41.035 5.37177H41.1095H41.3199H41.4048C41.8388 5.41185 42.101 5.76149 42.1001 6.16824L42.1076 14.4194C42.1076 14.6809 42.3067 14.8913 42.551 14.8913H44.5566C44.8009 14.8913 44.9999 14.6809 44.9999 14.4194V5.54509C44.9999 4.93998 44.9358 4.6825 44.8481 4.41802Z" fill="#54C1F0"/>
<path d="M31.2706 2.40944H30.1235V0.435806C30.1235 0.433802 30.1235 0.431799 30.1235 0.429795C30.1235 0.192358 29.9423 4.77114e-06 29.7188 4.77114e-06C29.6923 4.77114e-06 29.6669 0.00401158 29.6423 0.00902032C28.3707 0.379703 28.6254 2.25014 26.3038 2.40944H26.2519H26.0783C26.0444 2.40944 26.0123 2.41445 25.9812 2.42146H25.9793L25.9812 2.42246C25.7831 2.46955 25.634 2.65589 25.634 2.8803V5.01022C25.634 5.2697 25.8331 5.48109 26.0783 5.48109H27.2887L27.2868 14.5127C27.2868 14.7702 27.483 14.9786 27.7254 14.9786H29.7084C29.9499 14.9786 30.1461 14.7702 30.1461 14.5127L30.147 5.48109H31.2706C31.5149 5.48109 31.7139 5.2697 31.7139 5.01022V2.8803C31.7139 2.62083 31.5149 2.40944 31.2706 2.40944Z" fill="#54C1F0"/>
<path d="M24.0548 2.40943H22.0492C21.8049 2.40943 21.6068 2.62082 21.6068 2.88029V7.28439C21.6021 7.5569 21.3946 7.7753 21.137 7.7753H20.2974C20.0371 7.7753 19.8267 7.55289 19.8267 7.27638L19.8191 2.88029C19.8191 2.62082 19.6201 2.40943 19.3758 2.40943H17.3702C17.1249 2.40943 16.9268 2.62082 16.9268 2.88029V7.70717C16.9268 9.54054 18.1579 10.848 19.8852 10.848C19.8852 10.848 21.1814 10.8479 21.221 10.856C21.4549 10.884 21.637 11.0924 21.637 11.3489C21.637 11.6023 21.4587 11.8097 21.2276 11.8408C21.2163 11.8428 21.2059 11.8458 21.1936 11.8478L18.2607 11.8588C18.0155 11.8588 17.8173 12.0702 17.8173 12.3297V14.4586C17.8173 14.7191 18.0155 14.9295 18.2607 14.9295H21.5398C23.2681 14.9295 24.4982 13.6231 24.4982 11.7887V2.88029C24.4982 2.62082 24.3001 2.40943 24.0548 2.40943Z" fill="#233266"/>
<path d="M4.64225 6.31209V7.30592V7.62651C4.64225 7.90201 4.43188 8.12643 4.17246 8.12643L2.89987 8.12743V5.49358H4.17246C4.43188 5.49358 4.64225 5.71599 4.64225 5.9925V6.31209ZM4.81866 2.40891H0.434887C0.194331 2.40891 0 2.61629 0 2.87076V4.9576C0 4.9616 0.000943287 4.96561 0.000943287 4.96962C0.000943287 4.97964 0 4.98966 0 4.99867V11.692V14.444C0 14.7005 0.181124 14.9099 0.405643 14.9159H0.443377H2.44895C2.69328 14.9159 2.89233 14.7055 2.89233 14.445L2.89987 11.2081H4.81866C6.42425 11.2081 7.54307 10.0249 7.54307 8.31277V5.30824C7.54307 3.59609 6.42425 2.40891 4.81866 2.40891Z" fill="#233266"/>
<path d="M12.9636 11.3125V11.6451C12.9636 11.6721 12.9598 11.6982 12.956 11.7232C12.9513 11.7473 12.9447 11.7703 12.9372 11.7924C12.8749 11.9787 12.6994 12.114 12.491 12.114H11.6561C11.3957 12.114 11.1835 11.9036 11.1835 11.6451V11.2434C11.1835 11.2383 11.1825 11.2333 11.1825 11.2283L11.1835 10.1594V10.1574V10.0391V9.82475L11.1844 9.82174C11.1854 9.56427 11.3957 9.35588 11.6561 9.35588H12.491C12.7523 9.35588 12.9636 9.56527 12.9636 9.82475V11.3125ZM12.6447 2.42113H9.86182C9.61561 2.42113 9.41656 2.61949 9.41656 2.86294V3.69146C9.41656 3.69647 9.4175 3.70248 9.4175 3.70749C9.4175 3.7135 9.41656 3.71951 9.41656 3.72553V4.86061C9.41656 5.11809 9.62787 5.32848 9.88824 5.32848H12.5381C12.7475 5.36354 12.9136 5.52584 12.9372 5.7793V6.05381C12.9136 6.29525 12.7494 6.47158 12.5494 6.49161H11.2372C9.49203 6.49161 8.24868 7.72288 8.24868 9.45206V11.8655V11.9286C8.24868 13.6478 9.31751 14.871 11.0505 14.871H14.6871C15.3399 14.871 15.8691 14.3461 15.8691 13.6999V5.61801C15.8691 3.6584 14.9182 2.42113 12.6447 2.42113Z" fill="#233266"/>
</svg>
