<svg width="17" height="17" viewBox="0 0 17 17" fill="none" xmlns="http://www.w3.org/2000/svg">
<path d="M16.7611 15.5548L13.6095 12.4287C14.8329 10.9034 15.4253 8.96734 15.265 7.01862C15.1047 5.0699 14.2039 3.25666 12.7477 1.95173C11.2916 0.646804 9.39082 -0.0506204 7.43625 0.00286358C5.48168 0.0563476 3.62189 0.856674 2.23928 2.23928C0.856674 3.62189 0.0563476 5.48168 0.00286358 7.43625C-0.0506204 9.39082 0.646804 11.2916 1.95173 12.7477C3.25666 14.2039 5.0699 15.1047 7.01862 15.265C8.96734 15.4253 10.9034 14.8329 12.4287 13.6095L15.5548 16.7356C15.6338 16.8153 15.7278 16.8785 15.8313 16.9216C15.9348 16.9647 16.0458 16.9869 16.158 16.9869C16.2701 16.9869 16.3812 16.9647 16.4847 16.9216C16.5882 16.8785 16.6821 16.8153 16.7611 16.7356C16.9142 16.5772 16.9998 16.3655 16.9998 16.1452C16.9998 15.9249 16.9142 15.7133 16.7611 15.5548ZM7.66313 13.6095C6.48704 13.6095 5.33736 13.2608 4.35948 12.6074C3.3816 11.954 2.61944 11.0253 2.16937 9.93871C1.7193 8.85215 1.60154 7.65653 1.83098 6.50304C2.06043 5.34955 2.62677 4.29001 3.45839 3.45839C4.29001 2.62677 5.34955 2.06043 6.50304 1.83098C7.65653 1.60154 8.85215 1.7193 9.93871 2.16937C11.0253 2.61944 11.954 3.3816 12.6074 4.35948C13.2608 5.33736 13.6095 6.48704 13.6095 7.66313C13.6095 9.24021 12.983 10.7527 11.8679 11.8679C10.7527 12.983 9.24021 13.6095 7.66313 13.6095Z" fill="black"/>
</svg>
