<svg width="163" height="36" viewBox="0 0 163 36" fill="none" xmlns="http://www.w3.org/2000/svg">
<path d="M51.0711 10.8099C55.0076 10.8099 58.2094 13.9293 58.2094 17.7643C58.2094 21.5993 55.0076 24.7187 51.0711 24.7187H46.1763V10.8099H51.0711ZM51.0711 6.82867H44.3357C43.1087 6.82867 42.0897 7.81885 42.0897 9.01682V26.5143C42.0897 27.7097 43.1061 28.7025 44.3357 28.7025H51.0711C57.2799 28.7025 62.2959 23.8157 62.2959 17.7669C62.2959 11.718 57.2799 6.82867 51.0711 6.82867Z" fill="black"/>
<path d="M82.0043 26.7144C82.0043 27.8021 81.0801 28.7025 79.9637 28.7025C78.8472 28.7025 77.923 27.8021 77.923 26.7144V20.7502C77.923 18.5441 76.1062 16.7741 73.8418 16.7741C71.5773 16.7741 69.7605 18.5441 69.7605 20.7502V26.7144C69.7605 27.8021 68.8363 28.7025 67.7199 28.7025C66.6034 28.7025 65.6792 27.8021 65.6792 26.7144V8.8193C65.6792 7.73164 66.6034 6.83124 67.7199 6.83124C68.8363 6.83124 69.7605 7.73164 69.7605 8.8193V13.8831C70.9401 13.2007 72.3435 12.7954 73.8418 12.7954C78.3364 12.7954 82.0043 16.3688 82.0043 20.7477V26.7144Z" fill="black"/>
<path d="M90.0403 26.7144C90.0403 27.8021 89.116 28.7025 87.9996 28.7025C86.8832 28.7025 85.959 27.8021 85.959 26.7144V14.786C85.959 13.6984 86.8832 12.798 87.9996 12.798C89.116 12.798 90.0403 13.6984 90.0403 14.786V26.7144Z" fill="black"/>
<path d="M116.953 26.7144C116.953 27.8021 116.029 28.7025 114.913 28.7025C114.37 28.7025 113.859 28.4844 113.478 28.1125L105.728 20.563L97.9819 28.1125C97.6001 28.4844 97.0893 28.7025 96.5469 28.7025C95.4304 28.7025 94.5062 27.8021 94.5062 26.7144V8.8193C94.5062 7.73164 95.4304 6.83124 96.5469 6.83124C97.6633 6.83124 98.5875 7.73164 98.5875 8.8193V21.9302L104.296 16.3688C104.678 15.9661 105.22 15.7788 105.731 15.7788C106.242 15.7788 106.784 15.9661 107.166 16.3688L112.875 21.9302V8.8193C112.875 7.73164 113.799 6.83124 114.915 6.83124C116.032 6.83124 116.956 7.73164 116.956 8.8193V26.7144H116.953Z" fill="black"/>
<path d="M125.5 26.7144C125.5 27.8021 124.576 28.7025 123.46 28.7025C122.343 28.7025 121.419 27.8021 121.419 26.7144V14.786C121.419 13.6984 122.343 12.798 123.46 12.798C124.576 12.798 125.5 13.6984 125.5 14.786V26.7144Z" fill="black"/>
<path d="M138.639 24.7262C139.213 24.7262 139.658 24.2927 139.658 23.7309C139.658 23.1691 139.213 22.7356 138.639 22.7356H134.558C131.751 22.7356 129.455 20.4987 129.455 17.7642C129.455 15.0296 131.751 12.7927 134.558 12.7927H140.68C141.796 12.7927 142.72 13.6931 142.72 14.7808C142.72 15.8684 141.796 16.7688 140.68 16.7688H134.558C133.984 16.7688 133.536 17.2024 133.536 17.7642C133.536 18.3259 133.981 18.7595 134.558 18.7595H138.639C141.446 18.7595 143.739 20.9964 143.739 23.7309C143.739 26.4655 141.443 28.7023 138.639 28.7023H131.496C130.379 28.7023 129.455 27.8019 129.455 26.7143C129.455 25.6266 130.379 24.7262 131.496 24.7262H138.639Z" fill="black"/>
<path d="M154.837 28.7025C150.34 28.7025 146.675 25.1291 146.675 20.7502C146.675 16.3714 150.34 12.798 154.837 12.798C159.332 12.798 163 16.3714 163 20.7502C163 21.8379 162.076 22.7383 160.959 22.7383H151.296C151.999 23.9491 153.305 24.7264 154.835 24.7264H156.875C157.992 24.7264 158.916 25.6268 158.916 26.7144C158.916 27.8021 157.992 28.7025 156.875 28.7025H154.837ZM151.296 18.7596H158.374C157.673 17.5796 156.333 16.7715 154.835 16.7715C153.305 16.7715 151.999 17.5796 151.296 18.7596Z" fill="black"/>
<path d="M88.0004 11.305C89.2685 11.305 90.2965 10.3035 90.2965 9.06813C90.2965 7.83273 89.2685 6.83124 88.0004 6.83124C86.7324 6.83124 85.7044 7.83273 85.7044 9.06813C85.7044 10.3035 86.7324 11.305 88.0004 11.305Z" fill="url(#paint0_linear_614_9234)"/>
<path d="M123.46 11.305C124.728 11.305 125.756 10.3035 125.756 9.06813C125.756 7.83273 124.728 6.83124 123.46 6.83124C122.191 6.83124 121.164 7.83273 121.164 9.06813C121.164 10.3035 122.191 11.305 123.46 11.305Z" fill="url(#paint1_linear_614_9234)"/>
<path d="M25.4302 0H2.3408C1.04796 0 0 1.02097 0 2.2805V27.1326C0 28.056 0.571377 28.8872 1.44556 29.2386C2.3171 29.5901 3.32557 29.3951 3.997 28.7435L15.2692 17.7617C16.1829 16.8716 16.1829 15.4274 15.2692 14.5372C14.3555 13.6471 12.8731 13.6471 11.9594 14.5372L4.6816 21.6276V4.561H25.4328C28.9375 4.561 31.7865 7.33916 31.7865 10.7509V24.7751C31.7865 28.1894 28.9348 30.965 25.4328 30.965H14.2686L21.5464 23.8747C22.4601 22.9846 22.4601 21.5403 21.5464 20.6502C20.6328 19.7601 19.1503 19.7601 18.2367 20.6502L6.96184 31.6346C6.29304 32.2861 6.09293 33.2686 6.45366 34.1203C6.81702 34.9719 7.67014 35.5286 8.61541 35.5286H25.4276C31.5126 35.5286 36.4628 30.7059 36.4628 24.7777V10.7535C36.4681 4.82522 31.5179 0 25.4302 0Z" fill="url(#paint2_linear_614_9234)"/>
<path d="M25.3327 19.2445C26.6256 19.2445 27.6735 18.2235 27.6735 16.964V10.8484C27.6735 9.5889 26.6256 8.56793 25.3327 8.56793H19.0555C17.7627 8.56793 16.7147 9.5889 16.7147 10.8484C16.7147 12.108 17.7627 13.1289 19.0555 13.1289H22.9919V16.964C22.9919 18.2235 24.0399 19.2445 25.3327 19.2445Z" fill="url(#paint3_linear_614_9234)"/>
<defs>
<linearGradient id="paint0_linear_614_9234" x1="85.7051" y1="9.06723" x2="90.296" y2="9.06723" gradientUnits="userSpaceOnUse">
<stop stop-color="#0068FF"/>
<stop offset="1" stop-color="#0000E1"/>
</linearGradient>
<linearGradient id="paint1_linear_614_9234" x1="121.164" y1="9.06723" x2="125.755" y2="9.06723" gradientUnits="userSpaceOnUse">
<stop stop-color="#FF9852"/>
<stop offset="0.2774" stop-color="#FF8A3A"/>
<stop offset="1" stop-color="#FF6700"/>
</linearGradient>
<linearGradient id="paint2_linear_614_9234" x1="22.8398" y1="10.7934" x2="3.74923" y2="30.3888" gradientUnits="userSpaceOnUse">
<stop stop-color="#0068FF"/>
<stop offset="1" stop-color="#0000E1"/>
</linearGradient>
<linearGradient id="paint3_linear_614_9234" x1="27.4647" y1="8.77236" x2="20.4999" y2="15.9213" gradientUnits="userSpaceOnUse">
<stop stop-color="#FF9852"/>
<stop offset="0.2774" stop-color="#FF8A3A"/>
<stop offset="1" stop-color="#FF6700"/>
</linearGradient>
</defs>
</svg>
