<svg width="21" height="21" viewBox="0 0 21 21" fill="none" xmlns="http://www.w3.org/2000/svg">
<path d="M19.9442 10.503C19.6658 10.503 19.3988 10.6136 19.2019 10.8105C19.0051 11.0073 18.8945 11.2743 18.8945 11.5527V17.8509C18.8945 18.1293 18.7839 18.3962 18.587 18.5931C18.3902 18.79 18.1232 18.9006 17.8448 18.9006H3.14908C2.87068 18.9006 2.60369 18.79 2.40683 18.5931C2.20998 18.3962 2.09938 18.1293 2.09938 17.8509V3.15516C2.09938 2.87677 2.20998 2.60978 2.40683 2.41292C2.60369 2.21606 2.87068 2.10547 3.14908 2.10547H9.44723C9.72563 2.10547 9.99262 1.99488 10.1895 1.79802C10.3863 1.60117 10.4969 1.33417 10.4969 1.05578C10.4969 0.777383 10.3863 0.51039 10.1895 0.313534C9.99262 0.116679 9.72563 0.00608647 9.44723 0.00608647H3.14908C2.31389 0.00608647 1.51291 0.337863 0.922344 0.92843C0.331777 1.519 0 2.31998 0 3.15516V17.8509C0 18.686 0.331777 19.487 0.922344 20.0776C1.51291 20.6682 2.31389 20.9999 3.14908 20.9999H17.8448C18.68 20.9999 19.4809 20.6682 20.0715 20.0776C20.6621 19.487 20.9938 18.686 20.9938 17.8509V11.5527C20.9938 11.2743 20.8833 11.0073 20.6864 10.8105C20.4895 10.6136 20.2226 10.503 19.9442 10.503ZM4.19877 11.3008V15.7515C4.19877 16.0299 4.30936 16.2969 4.50622 16.4937C4.70307 16.6906 4.97007 16.8012 5.24846 16.8012H9.69916C9.83731 16.802 9.97425 16.7755 10.1021 16.7232C10.23 16.671 10.3464 16.594 10.4444 16.4968L17.7083 9.22239L20.6894 6.30424C20.7878 6.20666 20.8659 6.09056 20.9192 5.96265C20.9725 5.83473 20.9999 5.69753 20.9999 5.55896C20.9999 5.42039 20.9725 5.28319 20.9192 5.15527C20.8659 5.02736 20.7878 4.91126 20.6894 4.81368L16.2387 0.310497C16.1412 0.212111 16.0251 0.13402 15.8971 0.0807286C15.7692 0.0274371 15.632 0 15.4935 0C15.3549 0 15.2177 0.0274371 15.0898 0.0807286C14.9619 0.13402 14.8458 0.212111 14.7482 0.310497L11.788 3.28113L4.50318 10.5555C4.40589 10.6536 4.32892 10.7699 4.27669 10.8978C4.22445 11.0257 4.19797 11.1626 4.19877 11.3008ZM15.4935 2.53585L18.4641 5.50647L16.9735 6.99704L14.0029 4.02641L15.4935 2.53585ZM6.29815 11.7312L12.5228 5.50647L15.4935 8.4771L9.26878 14.7018H6.29815V11.7312Z" fill="#424C5D"/>
</svg>
