<svg width="17" height="17" viewBox="0 0 17 17" fill="none" xmlns="http://www.w3.org/2000/svg">
<path d="M16.7621 15.5558L13.6103 12.4295C14.8337 10.9041 15.4262 8.96787 15.2659 7.01903C15.1056 5.0702 14.2047 3.25685 12.7485 1.95185C11.2923 0.646842 9.39137 -0.0506233 7.43668 0.00286375C5.482 0.0563509 3.6221 0.856725 2.23941 2.23941C0.856725 3.6221 0.0563509 5.482 0.00286375 7.43668C-0.0506233 9.39137 0.646842 11.2923 1.95185 12.7485C3.25685 14.2047 5.0702 15.1056 7.01903 15.2659C8.96787 15.4262 10.9041 14.8337 12.4295 13.6103L15.5558 16.7366C15.6347 16.8162 15.7287 16.8794 15.8322 16.9226C15.9357 16.9657 16.0468 16.9879 16.1589 16.9879C16.2711 16.9879 16.3821 16.9657 16.4856 16.9226C16.5892 16.8794 16.6831 16.8162 16.7621 16.7366C16.9152 16.5782 17.0008 16.3665 17.0008 16.1462C17.0008 15.9259 16.9152 15.7142 16.7621 15.5558ZM7.66357 13.6103C6.48742 13.6103 5.33768 13.2616 4.35974 12.6081C3.3818 11.9547 2.61959 11.0259 2.1695 9.9393C1.7194 8.85267 1.60164 7.65698 1.83109 6.50342C2.06055 5.34987 2.62692 4.29026 3.45859 3.45859C4.29026 2.62692 5.34987 2.06055 6.50342 1.83109C7.65698 1.60164 8.85267 1.7194 9.9393 2.1695C11.0259 2.61959 11.9547 3.3818 12.6081 4.35974C13.2616 5.33768 13.6103 6.48742 13.6103 7.66357C13.6103 9.24075 12.9838 10.7533 11.8686 11.8686C10.7533 12.9838 9.24075 13.6103 7.66357 13.6103Z" fill="#4D90FF"/>
</svg>
