<svg width="20" height="18" viewBox="0 0 20 18" fill="none" xmlns="http://www.w3.org/2000/svg">
<path d="M12.9996 1.25241C12.9996 0.173817 11.7252 -0.3984 10.9192 0.318259L6.42777 4.31142C6.29048 4.43348 6.11316 4.50091 5.92945 4.50091H2.24994C1.00733 4.50091 0 5.50824 0 6.75084V11.2486C0 12.4912 1.00733 13.4986 2.24994 13.4986H5.9294C6.11312 13.4986 6.29045 13.566 6.42775 13.6881L10.9191 17.6817C11.7252 18.3984 12.9996 17.8262 12.9996 16.7476V1.25241ZM7.4244 5.4324L11.4997 1.80918V16.1908L7.42445 12.5672C7.01256 12.2009 6.48057 11.9986 5.9294 11.9986H2.24994C1.83574 11.9986 1.49996 11.6628 1.49996 11.2486V6.75084C1.49996 6.33664 1.83574 6.00087 2.24994 6.00087H5.92945C6.48057 6.00087 7.01253 5.79859 7.4244 5.4324ZM16.9911 2.89969C17.324 2.65316 17.7937 2.72313 18.0402 3.05598C19.2712 4.71801 19.9995 6.77616 19.9995 9.00221C19.9995 11.2283 19.2712 13.2864 18.0402 14.9484C17.7937 15.2813 17.324 15.3513 16.9911 15.1047C16.6583 14.8582 16.5883 14.3885 16.8348 14.0557C17.8811 12.6432 18.4995 10.896 18.4995 9.00221C18.4995 7.10842 17.8811 5.36126 16.8348 3.94874C16.5883 3.6159 16.6583 3.14622 16.9911 2.89969ZM15.1425 5.37162C15.5068 5.17444 15.9619 5.30987 16.1591 5.67413C16.6954 6.66471 16.9995 7.79905 16.9995 9.0022C16.9995 10.2053 16.6954 11.3397 16.1591 12.3303C15.9619 12.6945 15.5068 12.83 15.1425 12.6328C14.7783 12.4356 14.6429 11.9805 14.84 11.6162C15.2605 10.8394 15.4996 9.94986 15.4996 9.0022C15.4996 8.05454 15.2605 7.16495 14.84 6.3882C14.6429 6.02395 14.7783 5.56881 15.1425 5.37162Z" fill="white"/>
</svg>
