<svg width="27" height="27" viewBox="0 0 27 27" fill="none" xmlns="http://www.w3.org/2000/svg">
<path d="M25.6503 16.1965C25.2923 16.1965 24.949 16.3387 24.6959 16.5919C24.4428 16.845 24.3006 17.1883 24.3006 17.5462L24.3006 22.3917L18.1459 16.1965C18.02 16.0659 17.869 15.962 17.7021 15.891C17.5351 15.8201 17.3555 15.7835 17.1741 15.7835C16.9927 15.7835 16.8131 15.8201 16.6461 15.891C16.4792 15.962 16.3282 16.0659 16.2023 16.1965C15.9509 16.4494 15.8098 16.7915 15.8098 17.1481C15.8098 17.5047 15.9509 17.8467 16.2023 18.0996L22.3975 24.2948L17.552 24.2948C17.1941 24.2948 16.8507 24.437 16.5976 24.6901C16.3445 24.9432 16.2023 25.2866 16.2023 25.6445C16.2023 26.0025 16.3445 26.3458 16.5976 26.5989C16.8507 26.852 17.1941 26.9942 17.552 26.9942L25.6503 26.9942C25.8267 26.9921 26.0009 26.9554 26.1632 26.8863C26.493 26.7493 26.7551 26.4872 26.892 26.1574C26.9612 25.9951 26.9979 25.8209 27 25.6445L27 17.5462C27 17.1883 26.8578 16.845 26.6047 16.5919C26.3516 16.3387 26.0083 16.1965 25.6503 16.1965ZM9.04884 10.7977C9.30704 11.0188 9.63917 11.1344 9.97886 11.1212C10.3185 11.1081 10.6408 10.9673 10.8812 10.7269C11.1215 10.4865 11.2623 10.1643 11.2755 9.82462C11.2886 9.48493 11.173 9.1528 10.9519 8.8946L2.48924 0.418411C2.36312 0.293318 2.21355 0.19435 2.0491 0.127183C1.88466 0.0600146 1.70857 0.0259692 1.53094 0.0269964C1.35331 0.0259693 1.17722 0.0600147 1.01278 0.127183C0.848331 0.194351 0.698762 0.293318 0.572645 0.418412C0.446139 0.543885 0.345729 0.693165 0.277205 0.85764C0.208682 1.02212 0.173401 1.19853 0.173401 1.37671C0.173401 1.55488 0.208682 1.7313 0.277205 1.89578C0.345729 2.06025 0.446139 2.20953 0.572645 2.335L9.04884 10.7977ZM17.552 2.69942L22.3975 2.69942L0.397186 24.6862C0.14303 24.9404 0.00024699 25.2851 0.000247021 25.6445C0.000247053 26.004 0.14303 26.3487 0.397186 26.6028C0.651342 26.857 0.99605 26.9998 1.35548 26.9998C1.71491 26.9998 2.05962 26.857 2.31377 26.6028L24.3006 4.60252L24.3006 9.44798C24.3006 9.80595 24.4428 10.1493 24.6959 10.4024C24.949 10.6555 25.2923 10.7977 25.6503 10.7977C26.0083 10.7977 26.3516 10.6555 26.6047 10.4024C26.8578 10.1493 27 9.80595 27 9.44798L27 1.34971C26.9979 1.17333 26.9612 0.999087 26.892 0.83682C26.7551 0.50702 26.493 0.244939 26.1632 0.107975C26.0009 0.0388145 25.8267 0.00213168 25.6503 1.17996e-07L17.552 8.25969e-07C17.1941 8.57263e-07 16.8507 0.142201 16.5976 0.39532C16.3445 0.648441 16.2023 0.991745 16.2023 1.34971C16.2023 1.70768 16.3445 2.05098 16.5976 2.3041C16.8507 2.55722 17.1941 2.69942 17.552 2.69942Z" fill="#0061FF"/>
</svg>
