<svg width="21" height="20" viewBox="0 0 21 20" fill="none" xmlns="http://www.w3.org/2000/svg">
<path d="M10.0277 0C8.71454 0 7.41425 0.258645 6.20105 0.761168C4.98785 1.26369 3.88551 2.00025 2.95697 2.92879C1.0817 4.80406 0.028185 7.34748 0.028185 9.99951C0.0194433 12.3085 0.818939 14.5478 2.28807 16.3292L0.288172 18.3291C0.149421 18.4697 0.0554298 18.6483 0.0180575 18.8423C-0.0193148 19.0362 0.00160682 19.2369 0.0781825 19.4191C0.161236 19.599 0.295876 19.7502 0.46501 19.8534C0.634145 19.9567 0.830147 20.0074 1.02814 19.999H10.0277C12.6797 19.999 15.2231 18.9455 17.0984 17.0702C18.9737 15.195 20.0272 12.6515 20.0272 9.99951C20.0272 7.34748 18.9737 4.80406 17.0984 2.92879C15.2231 1.05352 12.6797 0 10.0277 0ZM10.0277 17.9991H3.43802L4.36797 17.0692C4.55422 16.8818 4.65875 16.6284 4.65875 16.3642C4.65875 16.1 4.55422 15.8466 4.36797 15.6592C3.05862 14.3513 2.24325 12.6299 2.06078 10.7883C1.8783 8.94661 2.34001 7.09866 3.36725 5.55925C4.39448 4.01984 5.92369 2.88422 7.69433 2.34586C9.46496 1.8075 11.3675 1.89971 13.0778 2.60679C14.788 3.31386 16.2002 4.59205 17.0738 6.22359C17.9473 7.85512 18.2282 9.73907 17.8684 11.5544C17.5087 13.3698 16.5307 15.0043 15.101 16.1795C13.6713 17.3546 11.8784 17.9977 10.0277 17.9991ZM15.0275 8.99956H5.02794C4.76274 8.99956 4.5084 9.10491 4.32087 9.29244C4.13334 9.47997 4.02799 9.73431 4.02799 9.99951C4.02799 10.2647 4.13334 10.5191 4.32087 10.7066C4.5084 10.8941 4.76274 10.9995 5.02794 10.9995H15.0275C15.2927 10.9995 15.547 10.8941 15.7345 10.7066C15.9221 10.5191 16.0274 10.2647 16.0274 9.99951C16.0274 9.73431 15.9221 9.47997 15.7345 9.29244C15.547 9.10491 15.2927 8.99956 15.0275 8.99956ZM13.0276 12.9994H7.02784C6.76264 12.9994 6.5083 13.1047 6.32077 13.2922C6.13324 13.4798 6.02789 13.7341 6.02789 13.9993C6.02789 14.2645 6.13324 14.5189 6.32077 14.7064C6.5083 14.8939 6.76264 14.9993 7.02784 14.9993H13.0276C13.2928 14.9993 13.5471 14.8939 13.7346 14.7064C13.9221 14.5189 14.0275 14.2645 14.0275 13.9993C14.0275 13.7341 13.9221 13.4798 13.7346 13.2922C13.5471 13.1047 13.2928 12.9994 13.0276 12.9994ZM7.02784 6.99966H13.0276C13.2928 6.99966 13.5471 6.89431 13.7346 6.70678C13.9221 6.51925 14.0275 6.26491 14.0275 5.99971C14.0275 5.7345 13.9221 5.48016 13.7346 5.29263C13.5471 5.10511 13.2928 4.99976 13.0276 4.99976H7.02784C6.76264 4.99976 6.5083 5.10511 6.32077 5.29263C6.13324 5.48016 6.02789 5.7345 6.02789 5.99971C6.02789 6.26491 6.13324 6.51925 6.32077 6.70678C6.5083 6.89431 6.76264 6.99966 7.02784 6.99966Z" fill="#424C5D"/>
</svg>
