<svg width="21" height="21" viewBox="0 0 21 21" fill="none" xmlns="http://www.w3.org/2000/svg">
<path d="M16.7798 12.6136C16.1604 12.6177 15.5496 12.759 14.9914 13.0272C14.4331 13.2955 13.9412 13.6841 13.551 14.1651L8.2046 11.7016C8.45598 10.9319 8.45598 10.1021 8.2046 9.33242L13.551 6.86889C14.1817 7.62993 15.0609 8.14372 16.0335 8.31958C17.0062 8.49545 18.0097 8.32209 18.8669 7.83009C19.7242 7.33809 20.3801 6.55909 20.7189 5.63057C21.0577 4.70204 21.0576 3.68368 20.7186 2.75522C20.3796 1.82676 19.7236 1.04787 18.8663 0.556034C18.0089 0.0641927 17.0054 -0.108988 16.0328 0.0670549C15.0602 0.243098 14.181 0.757048 13.5505 1.5182C12.92 2.27935 12.5786 3.23878 12.5865 4.22715C12.5897 4.47689 12.6142 4.7259 12.6599 4.97145L7.12484 7.51884C6.53473 6.94183 5.78745 6.55179 4.97665 6.3976C4.16584 6.2434 3.32757 6.33191 2.56684 6.65203C1.80611 6.97215 1.15677 7.50964 0.700165 8.19716C0.24356 8.88469 0 9.69168 0 10.517C0 11.3423 0.24356 12.1493 0.700165 12.8369C1.15677 13.5244 1.80611 14.0619 2.56684 14.382C3.32757 14.7021 4.16584 14.7906 4.97665 14.6364C5.78745 14.4822 6.53473 14.0922 7.12484 13.5152L12.6599 16.0626C12.6142 16.3081 12.5897 16.5571 12.5865 16.8069C12.5865 17.6362 12.8325 18.4469 13.2932 19.1365C13.754 19.8261 14.4089 20.3636 15.1751 20.6809C15.9413 20.9983 16.7844 21.0813 17.5978 20.9195C18.4113 20.7578 19.1584 20.3584 19.7449 19.7719C20.3313 19.1855 20.7307 18.4383 20.8925 17.6249C21.0543 16.8115 20.9712 15.9684 20.6538 15.2022C20.3365 14.436 19.799 13.7811 19.1094 13.3203C18.4199 12.8596 17.6091 12.6136 16.7798 12.6136ZM16.7798 2.13053C17.1945 2.13053 17.5998 2.25349 17.9446 2.48387C18.2894 2.71425 18.5581 3.0417 18.7168 3.4248C18.8755 3.80791 18.917 4.22947 18.8361 4.63618C18.7552 5.04288 18.5555 5.41646 18.2623 5.70968C17.9691 6.0029 17.5955 6.20258 17.1888 6.28348C16.7821 6.36438 16.3605 6.32286 15.9774 6.16417C15.5943 6.00548 15.2669 5.73675 15.0365 5.39197C14.8061 5.04718 14.6832 4.64182 14.6832 4.22715C14.6832 3.67109 14.9041 3.1378 15.2973 2.74461C15.6904 2.35142 16.2237 2.13053 16.7798 2.13053ZM4.20006 12.6136C3.78538 12.6136 3.38002 12.4907 3.03523 12.2603C2.69045 12.0299 2.42172 11.7025 2.26303 11.3194C2.10434 10.9362 2.06282 10.5147 2.14372 10.108C2.22462 9.70128 2.4243 9.32769 2.71752 9.03448C3.01074 8.74126 3.38432 8.54157 3.79102 8.46068C4.19773 8.37978 4.61929 8.4213 5.0024 8.57999C5.38551 8.73867 5.71295 9.0074 5.94333 9.35219C6.17371 9.69698 6.29668 10.1023 6.29668 10.517C6.29668 11.0731 6.07578 11.6064 5.68259 11.9995C5.2894 12.3927 4.75611 12.6136 4.20006 12.6136ZM16.7798 18.9035C16.3651 18.9035 15.9598 18.7805 15.615 18.5502C15.2702 18.3198 15.0014 17.9923 14.8428 17.6092C14.6841 17.2261 14.6426 16.8046 14.7234 16.3978C14.8043 15.9911 15.004 15.6176 15.2973 15.3243C15.5905 15.0311 15.964 14.8314 16.3708 14.7505C16.7775 14.6696 17.199 14.7112 17.5821 14.8699C17.9652 15.0285 18.2927 15.2973 18.5231 15.6421C18.7534 15.9868 18.8764 16.3922 18.8764 16.8069C18.8764 17.3629 18.6555 17.8962 18.2623 18.2894C17.8691 18.6826 17.3358 18.9035 16.7798 18.9035Z" fill="#262B35"/>
</svg>
