<svg width="18" height="20" viewBox="0 0 18 20" fill="none" xmlns="http://www.w3.org/2000/svg">
<path d="M16.5 1V0.999713C16.5 0.934086 16.5129 0.869088 16.538 0.808438C16.5631 0.747788 16.5999 0.692685 16.6463 0.646278C16.6927 0.599874 16.7478 0.563064 16.8084 0.537962C16.8691 0.512862 16.9341 0.499963 16.9997 0.5L17.0003 0.5C17.0659 0.499962 17.1309 0.512861 17.1916 0.537961C17.2522 0.563058 17.3073 0.599863 17.3537 0.646278C17.4001 0.692687 17.4369 0.747789 17.462 0.808436C17.4871 0.86908 17.5 0.934077 17.5 0.99971V1V17C17.5 17.1326 17.4473 17.2598 17.3536 17.3536C17.2598 17.4473 17.1326 17.5 17 17.5C16.8674 17.5 16.7402 17.4473 16.6464 17.3536C16.5527 17.2598 16.5 17.1326 16.5 17V16.3631V16.1861L16.3887 16.0486C15.5695 15.0362 14.5515 14.2024 13.3976 13.5989C12.2436 12.9953 10.9781 12.6347 9.67931 12.5393L9.32362 12.5132L9.18313 12.841L6.45938 19.1966L6.45912 19.1972C6.42073 19.2871 6.35678 19.3637 6.27521 19.4176C6.19363 19.4714 6.09803 19.5001 6.0003 19.5H6H2H1.99965C1.91696 19.5001 1.83555 19.4796 1.76274 19.4404C1.68992 19.4012 1.62797 19.3446 1.58245 19.2756C1.53693 19.2065 1.50927 19.1273 1.50195 19.0449C1.49462 18.9625 1.50787 18.8797 1.54049 18.8037L1.54063 18.8034L3.94336 13.197L4.24206 12.5H3.48379H3.00055C2.33758 12.4993 1.70198 12.2356 1.23319 11.7668C0.764467 11.2981 0.500792 10.6626 0.5 9.99971V8.00029C0.500792 7.33742 0.764467 6.70192 1.23319 6.23319C1.70188 5.7645 2.33732 5.50083 3.00014 5.5C3.00027 5.5 3.00041 5.5 3.00055 5.5L9 5.5L9.00186 5.5C10.4196 5.49473 11.8184 5.1734 13.0963 4.5594C14.3742 3.9454 15.4991 3.05418 16.3892 1.95062L16.5 1.81323V1.63672V1ZM2.99967 11.5H3H4H4.5V11V7V6.5H4H3H2.99966C2.60201 6.50027 2.22072 6.65836 1.93954 6.93954C1.65836 7.22072 1.50027 7.60201 1.5 7.99966V8L1.5 10L1.5 10.0003C1.50027 10.398 1.65835 10.7793 1.93954 11.0605C2.22072 11.3416 2.60201 11.4997 2.99967 11.5ZM5.34082 18.5H5.67054L5.8004 18.1969L7.94298 13.1969L8.24163 12.5H7.4834H5.65918H5.32946L5.1996 12.8031L3.05702 17.8031L2.75837 18.5H3.5166H5.34082ZM15.6821 13.9077L16.5 14.5815V13.5218V4.47761V3.41781L15.6821 4.09172C13.7997 5.64261 11.4382 6.49359 8.99928 6.49995H6H5.5V6.99995V11V11.5H6H8.99952C11.4383 11.5062 13.7997 12.357 15.6821 13.9077Z" fill="#0061FF" stroke="#0061FF"/>
</svg>
