<svg width="17" height="14" viewBox="0 0 17 14" fill="none" xmlns="http://www.w3.org/2000/svg">
<path d="M16.9287 6.4576C15.2123 2.47258 11.9835 0 8.49981 0C5.0161 0 1.7873 2.47258 0.0709357 6.4576C0.0241493 6.56481 0 6.68051 0 6.79748C0 6.91444 0.0241493 7.03015 0.0709357 7.13735C1.7873 11.1224 5.0161 13.595 8.49981 13.595C11.9835 13.595 15.2123 11.1224 16.9287 7.13735C16.9755 7.03015 16.9996 6.91444 16.9996 6.79748C16.9996 6.68051 16.9755 6.56481 16.9287 6.4576ZM8.49981 11.8956C5.80631 11.8956 3.25725 9.94981 1.7873 6.79748C3.25725 3.64515 5.80631 1.69937 8.49981 1.69937C11.1933 1.69937 13.7424 3.64515 15.2123 6.79748C13.7424 9.94981 11.1933 11.8956 8.49981 11.8956ZM8.49981 3.39874C7.8276 3.39874 7.17049 3.59807 6.61157 3.97153C6.05265 4.34499 5.61702 4.8758 5.35978 5.49684C5.10254 6.11787 5.03523 6.80125 5.16637 7.46054C5.29752 8.11983 5.62121 8.72543 6.09654 9.20075C6.57186 9.67607 7.17746 9.99977 7.83675 10.1309C8.49604 10.2621 9.17941 10.1947 9.80045 9.9375C10.4215 9.68026 10.9523 9.24463 11.3258 8.68572C11.6992 8.1268 11.8985 7.46968 11.8985 6.79748C11.8985 5.89608 11.5405 5.03159 10.9031 4.39421C10.2657 3.75682 9.40121 3.39874 8.49981 3.39874ZM8.49981 8.49685C8.1637 8.49685 7.83515 8.39718 7.55569 8.21045C7.27623 8.02372 7.05842 7.75832 6.92979 7.4478C6.80117 7.13728 6.76752 6.79559 6.83309 6.46595C6.89866 6.1363 7.06051 5.8335 7.29817 5.59584C7.53583 5.35818 7.83863 5.19633 8.16828 5.13076C8.49792 5.06519 8.83961 5.09884 9.15013 5.22746C9.46065 5.35609 9.72605 5.5739 9.91278 5.85336C10.0995 6.13282 10.1992 6.46137 10.1992 6.79748C10.1992 7.24818 10.0201 7.68042 9.70144 7.99911C9.38275 8.31781 8.95051 8.49685 8.49981 8.49685Z" fill="#BAC1CE"/>
</svg>
