<svg width="14" height="16" viewBox="0 0 14 16" fill="none" xmlns="http://www.w3.org/2000/svg">
<path d="M9.4401 14.0016C9.20786 15.1419 8.19935 16 6.99042 16C5.78149 16 4.77298 15.1419 4.54075 14.0016H9.4401ZM6.98807 0C10.137 0 12.732 2.33488 12.9725 5.3554L12.9859 5.57762L12.9904 5.80214L12.9894 9.408L13.9432 11.9951L13.9688 12.0796L13.9843 12.1664L13.9895 12.2546C13.9895 12.5697 13.7938 12.845 13.4675 12.9618L13.354 12.9947L13.2395 13.0046H0.741778C0.653281 13.0046 0.565482 12.9889 0.482444 12.9583C0.195544 12.8526 0.00678109 12.5865 0 12.2422L0.0045948 12.1247L0.0380411 11.9952L0.989424 9.411L0.990512 5.79281L0.994812 5.56824C1.11743 2.45115 3.76145 0 6.98807 0Z" fill="#090B0D"/>
</svg>
