<svg width="27" height="27" viewBox="0 0 27 27" fill="none" xmlns="http://www.w3.org/2000/svg">
<path d="M4.72468 20.9247H2.69982V6.07566H13.2291L12.1492 7.14209C11.895 7.39449 11.7515 7.73754 11.7502 8.09575C11.7489 8.45397 11.89 8.79802 12.1424 9.05221C12.3948 9.3064 12.7379 9.44992 13.0961 9.45119C13.4543 9.45245 13.7984 9.31136 14.0526 9.05896L17.4273 5.68419C17.5539 5.5587 17.6543 5.4094 17.7228 5.2449C17.7913 5.0804 17.8266 4.90396 17.8266 4.72575C17.8266 4.54755 17.7913 4.37111 17.7228 4.20661C17.6543 4.04211 17.5539 3.89281 17.4273 3.76732L14.0526 0.392544C13.7996 0.141122 13.4575 0 13.1009 0C12.7442 0 12.4021 0.141122 12.1492 0.392544C12.0227 0.518035 11.9222 0.667337 11.8537 0.831836C11.7852 0.996335 11.7499 1.17278 11.7499 1.35098C11.7499 1.52918 11.7852 1.70562 11.8537 1.87012C11.9222 2.03462 12.0227 2.18392 12.1492 2.30942L13.2156 3.37584H1.34991C0.991891 3.37584 0.648536 3.51807 0.395379 3.77122C0.142222 4.02438 0 4.36773 0 4.72575V22.2746C0 22.6326 0.142222 22.976 0.395379 23.2291C0.648536 23.4823 0.991891 23.6245 1.34991 23.6245H4.72468C5.0827 23.6245 5.42606 23.4823 5.67921 23.2291C5.93237 22.976 6.07459 22.6326 6.07459 22.2746C6.07459 21.9166 5.93237 21.5732 5.67921 21.32C5.42606 21.0669 5.0827 20.9247 4.72468 20.9247ZM25.6483 3.37584H22.2735C21.9155 3.37584 21.5721 3.51807 21.319 3.77122C21.0658 4.02438 20.9236 4.36773 20.9236 4.72575C20.9236 5.08377 21.0658 5.42713 21.319 5.68028C21.5721 5.93344 21.9155 6.07566 22.2735 6.07566H24.2984V20.9247H12.9996L14.0661 19.8582C14.1926 19.7327 14.293 19.5834 14.3615 19.4189C14.4301 19.2544 14.4654 19.078 14.4654 18.8998C14.4654 18.7216 14.4301 18.5452 14.3615 18.3807C14.293 18.2162 14.1926 18.0669 14.0661 17.9414C13.8131 17.6899 13.471 17.5488 13.1144 17.5488C12.7577 17.5488 12.4156 17.6899 12.1627 17.9414L8.78791 21.3161C8.66139 21.4416 8.56096 21.5909 8.49243 21.7554C8.42389 21.9199 8.38861 22.0964 8.38861 22.2746C8.38861 22.4528 8.42389 22.6292 8.49243 22.7937C8.56096 22.9582 8.66139 23.1075 8.78791 23.233L12.1627 26.6078C12.4169 26.8602 12.7609 27.0013 13.1191 27C13.4774 26.9987 13.8204 26.8552 14.0728 26.601C14.3252 26.3468 14.4663 26.0028 14.465 25.6446C14.4638 25.2864 14.3202 24.9433 14.0661 24.6909L12.9996 23.6245H25.6483C26.0063 23.6245 26.3497 23.4823 26.6028 23.2291C26.856 22.976 26.9982 22.6326 26.9982 22.2746V4.72575C26.9982 4.36773 26.856 4.02438 26.6028 3.77122C26.3497 3.51807 26.0063 3.37584 25.6483 3.37584Z" fill="#0061FF"/>
</svg>
