<svg width="14" height="22" viewBox="0 0 14 22" fill="none" xmlns="http://www.w3.org/2000/svg">
<path d="M7 21.4565C6.57947 21.4565 6.23913 21.1162 6.23913 20.6957V16.1305H5.47826V16.8913C5.47826 17.1841 5.31034 17.4501 5.0473 17.5772C4.78351 17.7035 4.46996 17.6678 4.24185 17.4858L0.437501 14.4423C0.256947 14.2974 0.152175 14.0789 0.152175 13.8478C0.152175 13.6168 0.256947 13.3983 0.437501 13.2534L4.24185 10.2099C4.47072 10.0271 4.78207 9.99222 5.0473 10.1185C5.31034 10.2456 5.47826 10.5116 5.47826 10.8044V11.5652H6.23913V9.28263C6.23913 8.8621 6.57947 8.52176 7 8.52176H9.28261C9.68313 8.52176 10.0108 8.8309 10.0413 9.22321L11.8691 7.76089L10.0413 6.29858C10.0108 6.69096 9.68313 7.00002 9.28261 7.00002H7C6.57947 7.00002 6.23913 6.65969 6.23913 6.23915V0.913068C6.23913 0.492536 6.57947 0.152199 7 0.152199C7.42053 0.152199 7.76087 0.492536 7.76087 0.913068V5.47828H8.52174V4.71742C8.52174 4.42463 8.68966 4.15863 8.9527 4.03157C9.21573 3.9045 9.52928 3.94019 9.75815 4.12295L13.5625 7.16643C13.7431 7.31137 13.8478 7.52982 13.8478 7.76089C13.8478 7.99197 13.7431 8.21041 13.5625 8.35536L9.75815 11.3988C9.53004 11.5824 9.21793 11.6173 8.9527 11.4902C8.68966 11.3632 8.52174 11.0972 8.52174 10.8044V10.0435H7.76087V12.3261C7.76087 12.7466 7.42053 13.087 7 13.087H4.71739C4.31687 13.087 3.98924 12.7778 3.95873 12.3855L2.13089 13.8478L3.95873 15.3102C3.98924 14.9179 4.31687 14.6087 4.71739 14.6087H7C7.42053 14.6087 7.76087 14.9491 7.76087 15.3696V20.6957C7.76087 21.1162 7.42053 21.4565 7 21.4565Z" fill="#424C5D" stroke="#424C5D" stroke-width="0.3"/>
</svg>
