<svg width="24" height="14" viewBox="0 0 24 14" fill="none" xmlns="http://www.w3.org/2000/svg">
<path d="M22.7499 1.28333C22.3999 1.05 21.9333 1.05 21.5833 1.28333L17.5 3.38332C17.3833 1.51666 15.8666 0 14 0H3.49999C1.51666 0 0 1.51666 0 3.49999V10.5C0 12.4833 1.51666 14 3.49999 14H14C15.8666 14 17.3833 12.4833 17.5 10.6166L21.6999 12.7166C22.2833 12.95 22.9833 12.7166 23.2166 12.25C23.3333 12.0166 23.3333 11.9 23.3333 11.6666V2.33333C23.3333 1.98333 23.0999 1.51666 22.7499 1.28333Z" fill="white"/>
</svg>
