<svg width="20" height="12" viewBox="0 0 20 12" fill="none" xmlns="http://www.w3.org/2000/svg">
<path d="M14.9998 0C16.6567 0 17.9997 1.34311 17.9997 2.9999V3.99987H19C19.1821 3.99987 19.3529 4.04857 19.5 4.13366C19.7989 4.30656 20 4.62975 20 4.99984V6.99977C20 7.36986 19.7989 7.69305 19.5 7.86594C19.3529 7.95104 19.1821 7.99974 19 7.99974H17.9997V8.9997C17.9997 10.6566 16.6567 11.9996 14.9998 11.9996H2.9999C1.34311 11.9996 0 10.6566 0 8.9997V2.9999C0 1.34311 1.34311 0 2.9999 0H14.9998ZM14.998 1.49995H2.9999C2.22023 1.49995 1.5795 2.09482 1.50682 2.85545L1.49995 2.9999V8.9997C1.49995 9.77935 2.09482 10.4201 2.85545 10.4928L2.9999 10.4997H14.998C15.7776 10.4997 16.4184 9.90476 16.4911 9.14416L16.4979 8.9997V2.9999C16.4979 2.22023 15.903 1.5795 15.1424 1.50682L14.998 1.49995ZM4.00019 2.9999H13.9999C14.5127 2.9999 14.9353 3.38593 14.9931 3.88325L14.9998 3.99987V7.99974C14.9998 8.51257 14.6138 8.93522 14.1165 8.99298L13.9999 8.9997H4.00019C3.48738 8.9997 3.06472 8.61369 3.00695 8.11636L3.00023 7.99974V3.99987C3.00023 3.48705 3.38626 3.06439 3.88358 3.00663L4.00019 2.9999H13.9999H4.00019Z" fill="white"/>
</svg>
