<svg width="39" height="33" viewBox="0 0 39 33" fill="none" xmlns="http://www.w3.org/2000/svg">
<path fill-rule="evenodd" clip-rule="evenodd" d="M4.6772 22.9027H1.64557C1.43811 22.9027 1.26168 23.0492 1.22932 23.2483L0.00318025 30.8063C-0.0211904 30.9555 0.0976073 31.0899 0.253206 31.0899H1.70053C1.90799 31.0899 2.08443 30.9434 2.11678 30.7439L2.44749 28.7054C2.47939 28.5058 2.65626 28.3594 2.86329 28.3594H3.82299C5.82003 28.3594 6.97251 27.4198 7.27365 25.558C7.40925 24.7435 7.2794 24.1035 6.88696 23.6552C6.45617 23.1631 5.69182 22.9027 4.6772 22.9027ZM5.02696 25.6631C4.86121 26.7208 4.03002 26.7208 3.22634 26.7208H2.76886L3.0898 24.7455C3.10886 24.6262 3.21524 24.5383 3.33937 24.5383H3.54905C4.09651 24.5383 4.61299 24.5383 4.87987 24.8416C5.03886 25.0227 5.08768 25.2916 5.02696 25.6631ZM13.7395 25.6292H12.2877C12.164 25.6292 12.0571 25.7172 12.038 25.8366L11.9738 26.2313L11.8723 26.0883C11.558 25.6448 10.8572 25.4966 10.1577 25.4966C8.55332 25.4966 7.18319 26.6779 6.9163 28.3351C6.77763 29.1615 6.97477 29.9519 7.45705 30.5032C7.89954 31.01 8.5326 31.2212 9.28567 31.2212C10.5783 31.2212 11.2952 30.413 11.2952 30.413L11.2304 30.8053C11.206 30.9553 11.3248 31.0897 11.4794 31.0897H12.7872C12.9952 31.0897 13.1706 30.9432 13.2034 30.7437L13.9881 25.9128C14.0129 25.7643 13.8946 25.6292 13.7395 25.6292ZM11.7158 28.3763C11.5756 29.1827 10.9174 29.724 10.0779 29.724C9.65636 29.724 9.31931 29.5925 9.10309 29.3434C8.88852 29.0961 8.80687 28.7439 8.87518 28.3518C9.00606 27.5522 9.67544 26.9934 10.5021 26.9934C10.9143 26.9934 11.2495 27.1264 11.4702 27.3777C11.6913 27.6316 11.7791 27.9858 11.7158 28.3763ZM20.0124 25.629H21.4714C21.6757 25.629 21.7949 25.8518 21.6788 26.0147L16.8266 32.8241C16.7481 32.9344 16.6186 33 16.4803 33H15.0232C14.8181 33 14.6983 32.7754 14.8171 32.6121L16.3279 30.5387L14.7211 25.9539C14.6655 25.7946 14.7865 25.629 14.9609 25.629H16.3944C16.5807 25.629 16.745 25.7479 16.7987 25.9212L17.6515 28.6903L19.6637 25.8087C19.7425 25.6962 19.8734 25.629 20.0124 25.629Z" fill="#253B80"/>
<path fill-rule="evenodd" clip-rule="evenodd" d="M35.8297 30.8063L37.0738 23.11C37.0929 22.9906 37.1994 22.9026 37.3231 22.9022H38.7238C38.8785 22.9022 38.9972 23.037 38.9728 23.1862L37.7459 30.7439C37.7139 30.9433 37.5375 31.0899 37.3296 31.0899H36.0787C35.924 31.0899 35.8052 30.9555 35.8297 30.8063ZM26.3011 22.9026H23.2689C23.0619 22.9026 22.8855 23.0492 22.8531 23.2483L21.627 30.8063C21.6026 30.9555 21.7213 31.0899 21.8762 31.0899H23.432C23.5766 31.0899 23.7003 30.9874 23.7229 30.8478L24.0708 28.7054C24.1028 28.5057 24.2797 28.3594 24.4866 28.3594H25.4459C27.4433 28.3594 28.5956 27.4198 28.8969 25.558C29.033 24.7435 28.9023 24.1035 28.5101 23.6551C28.0795 23.1631 27.3157 22.9026 26.3011 22.9026ZM26.6509 25.6631C26.4855 26.7207 25.6543 26.7207 24.8501 26.7207H24.3931L24.7145 24.7455C24.7336 24.6262 24.8391 24.5382 24.9636 24.5382H25.1732C25.7204 24.5382 26.2373 24.5382 26.504 24.8416C26.6632 25.0227 26.7116 25.2915 26.6509 25.6631ZM35.3626 25.6292H33.9118C33.7871 25.6292 33.6812 25.7171 33.6626 25.8366L33.5984 26.2313L33.4964 26.0883C33.1821 25.6448 32.4818 25.4966 31.7822 25.4966C30.1778 25.4966 28.8081 26.6779 28.5412 28.335C28.403 29.1615 28.5993 29.9519 29.0816 30.5032C29.5249 31.0099 30.1571 31.2211 30.9102 31.2211C32.2028 31.2211 32.9195 30.413 32.9195 30.413L32.8549 30.8053C32.8305 30.9553 32.9493 31.0897 33.105 31.0897H34.4121C34.6191 31.0897 34.7955 30.9431 34.828 30.7437L35.613 25.9128C35.637 25.7642 35.5183 25.6292 35.3626 25.6292ZM33.3391 28.3763C33.1998 29.1826 32.5406 29.7239 31.701 29.7239C31.2803 29.7239 30.9426 29.5925 30.7262 29.3434C30.5116 29.0961 30.431 28.7439 30.4985 28.3518C30.63 27.5522 31.2985 26.9934 32.1252 26.9934C32.5376 26.9934 32.8726 27.1264 33.0935 27.3777C33.3155 27.6316 33.4033 27.9858 33.3391 28.3763Z" fill="#179BD7"/>
<path d="M15.897 20.1988L16.2697 17.8972L15.4395 17.8785H11.4752L14.2302 0.894769C14.2386 0.843493 14.2665 0.795687 14.3071 0.761742C14.3477 0.727797 14.3998 0.709089 14.454 0.709089H21.1385C23.3577 0.709089 24.8891 1.15805 25.6887 2.04419C26.0635 2.45991 26.3023 2.89431 26.4178 3.37237C26.5388 3.87401 26.5411 4.47331 26.4227 5.20427L26.4141 5.25762V5.72597L26.7891 5.93245C27.1048 6.09526 27.3555 6.28163 27.5479 6.49504C27.8687 6.85046 28.0761 7.3022 28.1637 7.83776C28.2542 8.38858 28.2242 9.044 28.0761 9.78605C27.905 10.6396 27.6285 11.3831 27.2552 11.9914C26.9115 12.5519 26.474 13.0167 25.9546 13.3771C25.4585 13.7193 24.8692 13.9792 24.2029 14.1455C23.5571 14.3089 22.8211 14.3914 22.0136 14.3914H21.4934C21.1215 14.3914 20.76 14.5217 20.4765 14.7552C20.1922 14.9936 20.0039 15.319 19.9462 15.6752L19.907 15.8825L19.2485 19.9389L19.2186 20.0879C19.2108 20.1352 19.1973 20.1587 19.1774 20.1746C19.1595 20.189 19.1339 20.1988 19.1088 20.1988H15.897Z" fill="#253B80"/>
<path d="M27.1424 5.31192C27.1225 5.43593 27.0998 5.56272 27.0741 5.69297C26.1924 10.0932 23.1767 11.6133 19.3248 11.6133H17.3636C16.8926 11.6133 16.4957 11.9459 16.4222 12.3976L15.4181 18.589L15.1337 20.3438C15.086 20.6404 15.3212 20.9079 15.629 20.9079H19.1075C19.5194 20.9079 19.8692 20.6169 19.934 20.222L19.9683 20.0501L20.6233 16.0094L20.6654 15.7878C20.7294 15.3915 21.0799 15.1005 21.4919 15.1005H22.0121C25.3821 15.1005 28.0204 13.7702 28.7916 9.92072C29.1136 8.31262 28.9469 6.9699 28.0945 6.02554C27.8366 5.74078 27.5166 5.50452 27.1424 5.31192Z" fill="#179BD7"/>
<path d="M26.2216 4.9547C26.087 4.91659 25.9479 4.88194 25.8053 4.85077C25.6621 4.8203 25.5153 4.79327 25.3643 4.76972C24.8354 4.68657 24.2561 4.64708 23.6354 4.64708H18.3961C18.267 4.64708 18.1446 4.67548 18.0348 4.72676C17.7932 4.83968 17.6137 5.0621 17.5702 5.33438L16.4554 12.1977L16.4234 12.3979C16.4969 11.9462 16.8938 11.6136 17.3648 11.6136H19.326C23.1779 11.6136 26.1939 10.0928 27.0754 5.69327C27.1016 5.56302 27.1238 5.43623 27.1437 5.31222C26.9207 5.1972 26.679 5.09882 26.4189 5.01497C26.3549 4.99419 26.2886 4.97411 26.2216 4.9547Z" fill="#222D65"/>
<path d="M17.5692 5.33421C17.6127 5.06191 17.7924 4.83952 18.0339 4.72727C18.1444 4.67599 18.2663 4.64759 18.3951 4.64759H23.6346C24.2554 4.64759 24.8347 4.68708 25.3633 4.77023C25.5145 4.79378 25.6614 4.82081 25.8046 4.85128C25.9471 4.88247 26.086 4.91712 26.2208 4.95521C26.2877 4.97462 26.3539 4.9947 26.4188 5.0148C26.6789 5.09863 26.9205 5.19771 27.1435 5.31203C27.4059 3.68592 27.1415 2.57876 26.2372 1.57621C25.2402 0.472517 23.4407 0 21.1382 0H14.4536C13.9832 0 13.5821 0.332549 13.5093 0.784983L10.7251 17.9433C10.6702 18.2827 10.9395 18.5891 11.2915 18.5891H15.4185L16.4547 12.1975L17.5692 5.33421Z" fill="#253B80"/>
</svg>
