<svg width="27" height="24" viewBox="0 0 27 24" fill="none" xmlns="http://www.w3.org/2000/svg">
<path d="M22.6673 0C21.6064 0 20.589 0.421427 19.8388 1.17157C19.0887 1.92172 18.6673 2.93913 18.6673 4V7.78667L6.66727 0.626667C6.00411 0.230904 5.24622 0.0219475 4.47394 0.0219475C3.70166 0.0219475 2.94377 0.230904 2.28061 0.626667C1.58605 1.02137 1.0089 1.59361 0.608268 2.28476C0.207634 2.97591 -0.00207973 3.76113 0.000606891 4.56V19.44C-0.0127096 20.2515 0.193339 21.0514 0.596996 21.7555C1.00065 22.4595 1.58694 23.0415 2.29394 23.44C2.94855 23.8104 3.6885 24.0034 4.44061 24C5.22562 23.9947 5.99475 23.7783 6.66727 23.3733L18.6673 16.2133V20C18.6673 21.0609 19.0887 22.0783 19.8388 22.8284C20.589 23.5786 21.6064 24 22.6673 24C23.7281 24 24.7456 23.5786 25.4957 22.8284C26.2458 22.0783 26.6673 21.0609 26.6673 20V4C26.6673 2.93913 26.2458 1.92172 25.4957 1.17157C24.7456 0.421427 23.7281 0 22.6673 0ZM17.7606 13.64L5.33394 21.08C5.07687 21.2366 4.78164 21.3195 4.48061 21.3195C4.17957 21.3195 3.88435 21.2366 3.62727 21.08C3.33507 20.9176 3.09183 20.6798 2.92296 20.3913C2.75409 20.1028 2.66579 19.7743 2.66727 19.44V4.56C2.65964 4.22256 2.74365 3.88937 2.91035 3.59588C3.07705 3.30239 3.32021 3.0596 3.61394 2.89333C3.86595 2.74923 4.15034 2.67125 4.44061 2.66667C4.75657 2.66329 5.06679 2.75126 5.33394 2.92L17.7739 10.36C18.0522 10.5337 18.2817 10.7754 18.4409 11.0623C18.6 11.3492 18.6835 11.6719 18.6835 12C18.6835 12.3281 18.6 12.6508 18.4409 12.9377C18.2817 13.2246 18.0522 13.4663 17.7739 13.64H17.7606ZM24.0006 20C24.0006 20.3536 23.8601 20.6928 23.6101 20.9428C23.36 21.1929 23.0209 21.3333 22.6673 21.3333C22.3137 21.3333 21.9745 21.1929 21.7245 20.9428C21.4744 20.6928 21.3339 20.3536 21.3339 20V4C21.3339 3.64638 21.4744 3.30724 21.7245 3.05719C21.9745 2.80714 22.3137 2.66667 22.6673 2.66667C23.0209 2.66667 23.36 2.80714 23.6101 3.05719C23.8601 3.30724 24.0006 3.64638 24.0006 4V20Z" fill="#0061FF"/>
</svg>
