<svg width="13" height="21" viewBox="0 0 13 21" fill="none" xmlns="http://www.w3.org/2000/svg">
<path d="M7.41573 10.4973L11.2166 6.7065C11.3103 6.61351 11.3847 6.50289 11.4355 6.381C11.4863 6.25911 11.5124 6.12838 11.5124 5.99634C11.5124 5.8643 11.4863 5.73356 11.4355 5.61168C11.3847 5.48979 11.3103 5.37917 11.2166 5.28618L6.71558 0.785187C6.62045 0.694126 6.50828 0.622745 6.3855 0.575141C6.14199 0.4751 5.86885 0.4751 5.62533 0.575141C5.38093 0.676638 5.18671 0.870857 5.08521 1.11526C5.03396 1.23551 5.00678 1.36464 5.0052 1.49534V8.0868L2.21458 5.28618C2.12132 5.19292 2.01061 5.11895 1.88876 5.06847C1.76691 5.018 1.63631 4.99202 1.50442 4.99202C1.37254 4.99202 1.24194 5.018 1.12009 5.06847C0.998241 5.11895 0.887526 5.19292 0.794267 5.28618C0.701008 5.37944 0.627031 5.49016 0.57656 5.612C0.526088 5.73385 0.50011 5.86445 0.50011 5.99634C0.50011 6.12823 0.526088 6.25882 0.57656 6.38067C0.627031 6.50252 0.701008 6.61324 0.794267 6.7065L4.59511 10.4973L0.794267 14.2882C0.701008 14.3814 0.627031 14.4921 0.57656 14.614C0.526088 14.7358 0.50011 14.8664 0.50011 14.9983C0.50011 15.1302 0.526088 15.2608 0.57656 15.3827C0.627031 15.5045 0.701008 15.6152 0.794267 15.7085C0.887526 15.8017 0.998241 15.8757 1.12009 15.9262C1.24194 15.9767 1.37254 16.0026 1.50442 16.0026C1.63631 16.0026 1.76691 15.9767 1.88876 15.9262C2.01061 15.8757 2.12132 15.8017 2.21458 15.7085L5.0052 12.9079V19.4993C5.00678 19.63 5.03396 19.7592 5.08521 19.8794C5.18671 20.1238 5.38093 20.318 5.62533 20.4195C5.74506 20.4724 5.87452 20.4998 6.00542 20.4998C6.13632 20.4998 6.26578 20.4724 6.3855 20.4195C6.50828 20.3719 6.62045 20.3005 6.71558 20.2095L11.2166 15.7085C11.3103 15.6155 11.3847 15.5049 11.4355 15.383C11.4863 15.2611 11.5124 15.1304 11.5124 14.9983C11.5124 14.8663 11.4863 14.7356 11.4355 14.6137C11.3847 14.4918 11.3103 14.3812 11.2166 14.2882L7.41573 10.4973ZM7.00564 3.90588L9.0961 5.99634L7.00564 8.0868V3.90588ZM7.00564 17.0888V12.9079L9.0961 14.9983L7.00564 17.0888Z" fill="#090B0D" stroke="#F5F9FF"/>
</svg>
