<svg width="112" height="34" viewBox="0 0 112 34" fill="none" xmlns="http://www.w3.org/2000/svg">
<path d="M16.1765 12.8067C16.1765 14.7333 14.6038 16.32 12.6941 16.32C10.7844 16.32 9.21164 14.7333 9.21164 12.8067C9.21164 10.88 10.7844 9.29333 12.6941 9.29333C14.6038 9.29333 16.1765 10.88 16.1765 12.8067ZM12.6941 17.68C10.7844 17.68 9.21164 19.2667 9.21164 21.1933C9.21164 23.12 10.7844 24.7067 12.6941 24.7067C14.6038 24.7067 16.1765 23.12 16.1765 21.1933C16.1765 19.2667 14.6038 17.68 12.6941 17.68ZM33.7011 17C33.7011 26.4067 26.1745 34 16.8506 34C7.52658 34 0 26.4067 0 17C0 7.59333 7.52658 0 16.8506 0C26.1745 0 33.7011 7.59333 33.7011 17ZM29.2076 17C29.2076 10.0867 23.7031 4.53333 16.8506 4.53333C9.99799 4.53333 4.49348 10.0867 4.49348 17C4.49348 23.9133 9.99799 29.4667 16.8506 29.4667C23.7031 29.4667 29.2076 23.9133 29.2076 17ZM21.007 17.68C19.0973 17.68 17.5246 19.2667 17.5246 21.1933C17.5246 23.12 19.0973 24.7067 21.007 24.7067C22.9168 24.7067 24.4895 23.12 24.4895 21.1933C24.4895 19.2667 22.9168 17.68 21.007 17.68ZM21.007 9.29333C19.0973 9.29333 17.5246 10.88 17.5246 12.8067C17.5246 14.7333 19.0973 16.32 21.007 16.32C22.9168 16.32 24.4895 14.7333 24.4895 12.8067C24.4895 10.88 22.9168 9.29333 21.007 9.29333ZM78.9729 6.68667C79.0853 6.68667 79.1976 6.8 79.3099 6.91333V10.54C79.3099 10.7667 79.0853 10.88 78.9729 10.88H73.0191C72.7944 10.88 72.682 10.6533 72.682 10.54V7.02667C72.682 6.8 72.9067 6.68667 73.0191 6.68667H78.9729ZM78.8606 11.7867H67.4022C67.2899 11.7867 67.0652 11.9 67.0652 12.1267L65.6048 17.7933L65.4925 18.1333L63.6951 12.1267C63.6951 12.0133 63.4704 11.7867 63.3581 11.7867H58.8646C58.7523 11.7867 58.5276 11.9 58.5276 12.1267L56.8425 17.7933L56.7302 18.1333L56.6179 17.7933L55.9438 14.96L55.2698 12.1267C55.2698 12.0133 55.0451 11.7867 54.9328 11.7867H45.9458V6.91333C45.9458 6.8 45.7212 6.57333 45.4965 6.68667L39.8796 8.5C39.655 8.5 39.5426 8.61333 39.5426 8.84V11.9H38.0822C37.9699 11.9 37.7452 12.0133 37.7452 12.24V16.5467C37.7452 16.66 37.8576 16.8867 38.0822 16.8867H39.5426V22.2133C39.5426 25.9533 41.5647 27.6533 45.2718 27.6533C46.8445 27.6533 48.3049 27.3133 49.316 26.7467V22.2133C49.316 21.9867 49.0913 21.8733 48.9789 21.9867C48.4173 22.2133 47.8556 22.3267 47.4062 22.3267C46.3952 22.3267 45.8335 21.8733 45.8335 20.74V16.8867H49.0913C49.2036 16.8867 49.4283 16.7733 49.4283 16.5467V12.92L53.6971 27.2C53.6971 27.3133 53.9218 27.54 54.0341 27.54H58.7523C58.8646 27.54 59.0893 27.4267 59.0893 27.2L61.1113 20.8533L62.1224 24.14L63.0211 27.2C63.0211 27.3133 63.2457 27.54 63.3581 27.54H68.0762C68.1886 27.54 68.4132 27.4267 68.4132 27.2L72.682 12.92V27.2C72.682 27.3133 72.7944 27.54 73.0191 27.54H78.7482C78.8606 27.54 79.0853 27.4267 79.0853 27.2V12.1267C79.0853 12.0133 78.9729 11.7867 78.8606 11.7867ZM86.3872 6.68667H80.658C80.5456 6.68667 80.321 6.8 80.321 7.02667V27.0867C80.321 27.2 80.4333 27.4267 80.658 27.4267H86.3872C86.4995 27.4267 86.7242 27.3133 86.7242 27.0867V6.91333C86.7242 6.8 86.6118 6.68667 86.3872 6.68667ZM94.0261 6.68667H88.0722C87.9599 6.68667 87.7352 6.8 87.7352 7.02667V10.54C87.7352 10.6533 87.8475 10.88 88.0722 10.88H94.0261C94.1384 10.88 94.3631 10.7667 94.3631 10.54V6.91333C94.3631 6.8 94.2508 6.68667 94.0261 6.68667ZM93.9137 11.7867H88.1846C88.0722 11.7867 87.8475 11.9 87.8475 12.1267V26.9733C87.8475 27.0867 87.9599 27.3133 88.1846 27.3133H93.9137C94.0261 27.3133 94.2508 27.2 94.2508 26.9733V12.1267C94.2508 12.0133 94.1384 11.7867 93.9137 11.7867ZM112 19.4933C112 23.8 108.405 27.54 103.35 27.54C98.4072 27.54 94.8124 23.8 94.8124 19.4933C94.8124 15.1867 98.4072 11.4467 103.462 11.4467C108.405 11.4467 112 15.1867 112 19.4933ZM105.934 19.6067C105.934 18.02 104.81 16.7733 103.462 16.8867C102.002 16.8867 100.991 18.1333 100.991 19.6067C100.991 21.08 102.114 22.3267 103.462 22.3267C104.923 22.3267 105.934 21.08 105.934 19.6067Z" fill="#F22F46"/>
</svg>
