<svg width="20" height="20" viewBox="0 0 20 20" fill="none" xmlns="http://www.w3.org/2000/svg">
<path d="M17.5215 11.0001C17.3007 11.0001 17.0698 10.9298 16.849 10.8796C16.4019 10.7811 15.9625 10.6503 15.5343 10.4882C15.0687 10.3188 14.5569 10.3276 14.0974 10.5129C13.6379 10.6982 13.2632 11.0469 13.0453 11.4918L12.8245 11.9435C11.847 11.3997 10.9487 10.7243 10.1549 9.93622C9.36678 9.14237 8.69139 8.2441 8.14761 7.26657L8.56913 6.98556C9.0141 6.76769 9.36278 6.39295 9.54806 5.93345C9.73334 5.47395 9.74214 4.96216 9.57276 4.49656C9.4134 4.06744 9.28265 3.62822 9.18134 3.18181C9.13116 2.96102 9.09102 2.73018 9.06091 2.49935C8.93903 1.79241 8.56875 1.15222 8.01676 0.694064C7.46476 0.235906 6.76732 -0.0101104 6.05003 0.000318454H3.03915C2.60662 -0.00374276 2.17829 0.0854395 1.78332 0.261794C1.38835 0.438148 1.03602 0.697534 0.750309 1.02229C0.464597 1.34705 0.252213 1.72956 0.127616 2.14378C0.0030196 2.55799 -0.030865 2.99419 0.0282693 3.42268C0.562939 7.62726 2.48317 11.5339 5.48564 14.5254C8.48811 17.517 12.4017 19.423 16.6082 19.9424H16.9896C17.7296 19.9435 18.4442 19.6719 18.9968 19.1796C19.3143 18.8956 19.568 18.5475 19.741 18.1582C19.914 17.769 20.0024 17.3474 20.0004 16.9215V13.9106C19.9881 13.2134 19.7343 12.5422 19.2822 12.0114C18.8301 11.4806 18.2078 11.1231 17.5215 11.0001ZM18.0233 17.0218C18.0231 17.1643 17.9926 17.3051 17.9337 17.4349C17.8749 17.5647 17.7891 17.6805 17.6821 17.7745C17.5699 17.8714 17.4388 17.9437 17.2971 17.9869C17.1553 18.0301 17.0062 18.0432 16.8591 18.0254C13.1004 17.5435 9.60912 15.824 6.93594 13.1381C4.26277 10.4522 2.55983 6.95278 2.09574 3.19185C2.07977 3.04484 2.09377 2.89611 2.13689 2.75466C2.18002 2.61321 2.25137 2.48197 2.34665 2.36888C2.4407 2.26182 2.55647 2.17602 2.68625 2.11718C2.81604 2.05835 2.95687 2.02782 3.09937 2.02764H6.11024C6.34363 2.02245 6.57154 2.09878 6.75472 2.24349C6.9379 2.38821 7.0649 2.59225 7.11387 2.82051C7.15402 3.09483 7.2042 3.36581 7.26442 3.63345C7.38035 4.1625 7.53465 4.68242 7.72608 5.18907L6.32101 5.84142C6.20087 5.89654 6.0928 5.97485 6.00302 6.07185C5.91323 6.16885 5.84348 6.28263 5.79779 6.40666C5.75209 6.53069 5.73135 6.66252 5.73674 6.79459C5.74214 6.92666 5.77357 7.05636 5.82923 7.17625C7.27365 10.2702 9.76068 12.7572 12.8546 14.2016C13.099 14.302 13.373 14.302 13.6174 14.2016C13.7425 14.1569 13.8576 14.0877 13.9558 13.9981C14.054 13.9085 14.1334 13.8003 14.1894 13.6797L14.8117 12.2747C15.3305 12.4602 15.8601 12.6144 16.3974 12.7363C16.665 12.7966 16.936 12.8467 17.2104 12.8869C17.4386 12.9358 17.6427 13.0629 17.7874 13.246C17.9321 13.4292 18.0084 13.6571 18.0032 13.8905L18.0233 17.0218Z" fill="#424C5D"/>
</svg>
