<svg width="163" height="36" viewBox="0 0 163 36" fill="none" xmlns="http://www.w3.org/2000/svg">
<path d="M51.0704 10.81C55.0068 10.81 58.2086 13.9294 58.2086 17.7644C58.2086 21.5994 55.0068 24.7188 51.0704 24.7188H46.1755V10.81H51.0704ZM51.0704 6.82879H44.335C43.108 6.82879 42.089 7.81897 42.089 9.01694V26.5144C42.089 27.7098 43.1053 28.7026 44.335 28.7026H51.0704C57.2792 28.7026 62.2952 23.8158 62.2952 17.767C62.2952 11.7181 57.2792 6.82879 51.0704 6.82879Z" fill="black"/>
<path d="M82.0044 26.7147C82.0044 27.8023 81.0802 28.7027 79.9637 28.7027C78.8473 28.7027 77.9231 27.8023 77.9231 26.7147V20.7505C77.9231 18.5444 76.1063 16.7744 73.8419 16.7744C71.5774 16.7744 69.7606 18.5444 69.7606 20.7505V26.7147C69.7606 27.8023 68.8364 28.7027 67.72 28.7027C66.6035 28.7027 65.6793 27.8023 65.6793 26.7147V8.81954C65.6793 7.73188 66.6035 6.83148 67.72 6.83148C68.8364 6.83148 69.7606 7.73188 69.7606 8.81954V13.8833C70.9402 13.201 72.3436 12.7957 73.8419 12.7957C78.3365 12.7957 82.0044 16.369 82.0044 20.7479V26.7147Z" fill="black"/>
<path d="M90.0413 26.7145C90.0413 27.8022 89.1171 28.7026 88.0007 28.7026C86.8843 28.7026 85.9601 27.8022 85.9601 26.7145V14.7862C85.9601 13.6985 86.8843 12.7981 88.0007 12.7981C89.1171 12.7981 90.0413 13.6985 90.0413 14.7862V26.7145Z" fill="black"/>
<path d="M116.953 26.7147C116.953 27.8023 116.029 28.7027 114.913 28.7027C114.37 28.7027 113.859 28.4847 113.478 28.1127L105.728 20.5632L97.982 28.1127C97.6002 28.4847 97.0894 28.7027 96.547 28.7027C95.4305 28.7027 94.5063 27.8023 94.5063 26.7147V8.81954C94.5063 7.73188 95.4305 6.83148 96.547 6.83148C97.6634 6.83148 98.5876 7.73188 98.5876 8.81954V21.9305L104.296 16.369C104.678 15.9663 105.22 15.779 105.731 15.779C106.242 15.779 106.784 15.9663 107.166 16.369L112.875 21.9305V8.81954C112.875 7.73188 113.799 6.83148 114.915 6.83148C116.032 6.83148 116.956 7.73188 116.956 8.81954V26.7147H116.953Z" fill="black"/>
<path d="M125.499 26.7145C125.499 27.8022 124.575 28.7026 123.459 28.7026C122.342 28.7026 121.418 27.8022 121.418 26.7145V14.7862C121.418 13.6985 122.342 12.7981 123.459 12.7981C124.575 12.7981 125.499 13.6985 125.499 14.7862V26.7145Z" fill="black"/>
<path d="M138.639 24.7265C139.213 24.7265 139.658 24.2929 139.658 23.7311C139.658 23.1694 139.213 22.7358 138.639 22.7358H134.558C131.751 22.7358 129.455 20.4989 129.455 17.7644C129.455 15.0298 131.751 12.793 134.558 12.793H140.68C141.796 12.793 142.72 13.6934 142.72 14.781C142.72 15.8687 141.796 16.7691 140.68 16.7691H134.558C133.984 16.7691 133.536 17.2026 133.536 17.7644C133.536 18.3262 133.981 18.7597 134.558 18.7597H138.639C141.446 18.7597 143.739 20.9966 143.739 23.7311C143.739 26.4657 141.443 28.7026 138.639 28.7026H131.496C130.379 28.7026 129.455 27.8022 129.455 26.7145C129.455 25.6269 130.379 24.7265 131.496 24.7265H138.639Z" fill="black"/>
<path d="M154.837 28.7026C150.34 28.7026 146.675 25.1292 146.675 20.7503C146.675 16.3715 150.34 12.7981 154.837 12.7981C159.332 12.7981 163 16.3715 163 20.7503C163 21.838 162.076 22.7384 160.959 22.7384H151.296C151.999 23.9492 153.305 24.7265 154.835 24.7265H156.875C157.992 24.7265 158.916 25.6269 158.916 26.7145C158.916 27.8022 157.992 28.7026 156.875 28.7026H154.837ZM151.296 18.7597H158.374C157.673 17.5797 156.333 16.7717 154.835 16.7717C153.305 16.7717 151.999 17.5797 151.296 18.7597Z" fill="black"/>
<path d="M87.9996 11.3053C89.2676 11.3053 90.2956 10.3038 90.2956 9.06837C90.2956 7.83297 89.2676 6.83148 87.9996 6.83148C86.7315 6.83148 85.7035 7.83297 85.7035 9.06837C85.7035 10.3038 86.7315 11.3053 87.9996 11.3053Z" fill="url(#paint0_linear_614_10595)"/>
<path d="M123.46 11.3053C124.728 11.3053 125.756 10.3038 125.756 9.06837C125.756 7.83297 124.728 6.83148 123.46 6.83148C122.192 6.83148 121.164 7.83297 121.164 9.06837C121.164 10.3038 122.192 11.3053 123.46 11.3053Z" fill="url(#paint1_linear_614_10595)"/>
<path d="M25.4302 0H2.3408C1.04796 0 0 1.02097 0 2.2805V27.1325C0 28.056 0.571376 28.8872 1.44556 29.2386C2.3171 29.5901 3.32557 29.3951 3.997 28.7435L15.2692 17.7617C16.1829 16.8716 16.1829 15.4274 15.2692 14.5372C14.3555 13.6471 12.8731 13.6471 11.9594 14.5372L4.6816 21.6275V4.561H25.4328C28.9375 4.561 31.7864 7.33915 31.7864 10.7509V24.7751C31.7864 28.1894 28.9348 30.965 25.4328 30.965H14.2686L21.5464 23.8747C22.4601 22.9846 22.4601 21.5403 21.5464 20.6502C20.6327 19.76 19.1503 19.76 18.2367 20.6502L6.96184 31.6345C6.29304 32.2861 6.09293 33.2686 6.45366 34.1203C6.81702 34.9719 7.67014 35.5286 8.61541 35.5286H25.4276C31.5126 35.5286 36.4628 30.7059 36.4628 24.7777V10.7535C36.468 4.82522 31.5179 0 25.4302 0Z" fill="url(#paint2_linear_614_10595)"/>
<path d="M25.3327 19.2443C26.6256 19.2443 27.6735 18.2234 27.6735 16.9638V10.8483C27.6735 9.58877 26.6256 8.56781 25.3327 8.56781H19.0555C17.7627 8.56781 16.7147 9.58877 16.7147 10.8483C16.7147 12.1078 17.7627 13.1288 19.0555 13.1288H22.9919V16.9638C22.9919 18.2234 24.0399 19.2443 25.3327 19.2443Z" fill="url(#paint3_linear_614_10595)"/>
<defs>
<linearGradient id="paint0_linear_614_10595" x1="85.7042" y1="9.06747" x2="90.2951" y2="9.06747" gradientUnits="userSpaceOnUse">
<stop stop-color="#0068FF"/>
<stop offset="1" stop-color="#0000E1"/>
</linearGradient>
<linearGradient id="paint1_linear_614_10595" x1="121.164" y1="9.06747" x2="125.755" y2="9.06747" gradientUnits="userSpaceOnUse">
<stop stop-color="#FF9852"/>
<stop offset="0.2774" stop-color="#FF8A3A"/>
<stop offset="1" stop-color="#FF6700"/>
</linearGradient>
<linearGradient id="paint2_linear_614_10595" x1="22.8398" y1="10.7934" x2="3.74923" y2="30.3888" gradientUnits="userSpaceOnUse">
<stop stop-color="#0068FF"/>
<stop offset="1" stop-color="#0000E1"/>
</linearGradient>
<linearGradient id="paint3_linear_614_10595" x1="27.4647" y1="8.77223" x2="20.4999" y2="15.9212" gradientUnits="userSpaceOnUse">
<stop stop-color="#FF9852"/>
<stop offset="0.2774" stop-color="#FF8A3A"/>
<stop offset="1" stop-color="#FF6700"/>
</linearGradient>
</defs>
</svg>
