<svg width="16" height="16" viewBox="0 0 16 16" fill="none" xmlns="http://www.w3.org/2000/svg">
<path d="M0 7.99997C0 3.58171 3.58171 0 7.99997 0C12.4182 0 15.9999 3.58171 15.9999 7.99997C15.9999 12.4182 12.4182 15.9999 7.99997 15.9999C3.58171 15.9999 0 12.4182 0 7.99997ZM7.99997 0.999939C7.91472 0.999939 7.82984 1.00146 7.74533 1.00448C7.86269 1.22665 7.99793 1.50934 8.11782 1.82786C8.39848 2.57351 8.64436 3.64517 8.20281 4.5854C7.79866 5.44602 7.10596 5.66952 6.57066 5.80782L6.47409 5.83267C5.96812 5.96262 5.71892 6.02661 5.54432 6.2917C5.37416 6.55003 5.41524 6.86614 5.58086 7.40585C5.59302 7.44549 5.60603 7.48694 5.61947 7.5298C5.68569 7.74091 5.76266 7.98625 5.80283 8.21719C5.85266 8.50359 5.86389 8.85292 5.68979 9.187C5.51068 9.53071 5.27579 9.76111 5.00042 9.91113C4.73972 10.0532 4.46755 10.1082 4.25343 10.1462L4.16558 10.1616C3.75781 10.233 3.5204 10.2746 3.29839 10.5124C3.1211 10.7024 3.01975 11.0205 2.96197 11.4538C2.93824 11.6318 2.92397 11.8083 2.90948 11.9874L2.90176 12.0823C2.88536 12.2812 2.86561 12.5009 2.8232 12.6873L2.81872 12.707C4.09921 14.1156 5.94631 15 7.99997 15C9.35059 15 10.6119 14.6175 11.6814 13.9549C11.5958 13.8695 11.5005 13.7664 11.4069 13.6486C11.1358 13.3072 10.7977 12.7397 10.9151 12.0791C10.9709 11.765 11.1404 11.4971 11.312 11.2844C11.4863 11.0683 11.6981 10.8671 11.8878 10.6924C11.9319 10.6519 11.9745 10.613 12.0156 10.5755C12.1616 10.4421 12.2889 10.3259 12.3976 10.212C12.5446 10.0581 12.5891 9.97578 12.5971 9.94919C12.6653 9.72377 12.5845 9.54496 12.4718 9.4578C12.3772 9.38467 12.1766 9.31561 11.8611 9.51538C11.7425 9.59054 11.6341 9.65642 11.5386 9.70654C11.4522 9.75195 11.3332 9.80824 11.2029 9.82889C11.0461 9.85374 10.8279 9.83042 10.6587 9.65106C10.5303 9.51498 10.495 9.34975 10.4812 9.27601C10.4645 9.18691 10.4565 9.08635 10.4502 9.00081L10.4454 8.93401C10.4402 8.8604 10.4347 8.78372 10.4266 8.69664C10.4059 8.47505 10.3689 8.20059 10.2831 7.87109C10.1553 7.38058 9.8427 6.9834 9.51919 6.57241C9.47183 6.51224 9.42413 6.45164 9.37685 6.39055C9.21733 6.18441 9.01414 5.91224 8.94044 5.62134C8.89888 5.45729 8.89212 5.26741 8.9654 5.07358C9.03731 4.88336 9.16812 4.73757 9.31691 4.62597C9.74487 4.30498 10.4444 3.61326 11.06 2.97364C11.3624 2.65941 11.6362 2.3665 11.8345 2.15207C11.8363 2.15012 11.8381 2.14818 11.8399 2.14624C10.7374 1.42155 9.41793 0.999939 7.99997 0.999939ZM12.6375 2.75643C12.6157 2.78009 12.5927 2.80498 12.5686 2.83102C12.3672 3.0488 12.0887 3.34674 11.7805 3.667C11.1783 4.29271 10.4291 5.03952 9.92576 5.41924C9.95594 5.48568 10.026 5.5955 10.1677 5.77858C10.2055 5.82748 10.2473 5.88004 10.292 5.93616C10.608 6.33331 11.0656 6.90831 11.2508 7.61905C11.3537 8.01434 11.398 8.3445 11.4222 8.60372L11.4231 8.61279C12.0111 8.28335 12.6323 8.31786 13.0835 8.66677C13.5414 9.02089 13.736 9.63745 13.5543 10.2386C13.4733 10.5066 13.2819 10.7338 13.1209 10.9025C12.986 11.0438 12.8246 11.1911 12.6749 11.3276C12.6373 11.3619 12.6005 11.3955 12.565 11.4282C12.3772 11.6011 12.2139 11.759 12.0903 11.9122C11.9639 12.0688 11.9127 12.1803 11.8996 12.254C11.8593 12.4809 11.9714 12.7516 12.1899 13.0267C12.291 13.154 12.3982 13.2606 12.481 13.3358C12.4894 13.3434 12.4975 13.3507 12.5053 13.3576C14.0307 12.0736 15 10.15 15 7.99997C15 5.91277 14.0865 4.03892 12.6375 2.75643ZM6.79777 1.35441C6.74468 1.25867 6.69867 1.18148 6.66515 1.12706C3.43758 1.75022 0.999939 4.59042 0.999939 7.99997C0.999939 9.28282 1.34503 10.4851 1.94744 11.519C1.9543 11.4538 1.96199 11.3878 1.9708 11.3217C2.03312 10.8543 2.16381 10.2625 2.56743 9.8301C3.02945 9.33515 3.59278 9.24222 3.9712 9.17979C4.00902 9.17355 4.04499 9.16761 4.07883 9.16161C4.28215 9.12556 4.41468 9.09154 4.52204 9.03305C4.61473 8.98255 4.71126 8.90099 4.80303 8.72489C4.83148 8.6703 4.85049 8.57712 4.81769 8.38858C4.78987 8.22869 4.73758 8.06111 4.67238 7.85217C4.65721 7.80356 4.64134 7.75271 4.62492 7.6992C4.47237 7.20209 4.25108 6.43725 4.70925 5.74166C5.10899 5.13478 5.74865 4.97931 6.18625 4.87295C6.23355 4.86146 6.2785 4.85053 6.32052 4.83968C6.78752 4.71902 7.09239 4.59757 7.29771 4.16036C7.55894 3.60409 7.44091 2.86803 7.18198 2.1801C7.05792 1.85052 6.91263 1.56152 6.79777 1.35441Z" fill="#090B0D"/>
</svg>
