<svg width="163" height="36" viewBox="0 0 163 36" fill="none" xmlns="http://www.w3.org/2000/svg">
<path d="M51.0704 10.8099C55.0068 10.8099 58.2086 13.9292 58.2086 17.7643C58.2086 21.5993 55.0068 24.7186 51.0704 24.7186H46.1755V10.8099H51.0704ZM51.0704 6.82866H44.335C43.108 6.82866 42.089 7.81884 42.089 9.01681V26.5143C42.089 27.7097 43.1053 28.7025 44.335 28.7025H51.0704C57.2792 28.7025 62.2952 23.8157 62.2952 17.7668C62.2952 11.718 57.2792 6.82866 51.0704 6.82866Z" fill="black"/>
<path d="M82.0043 26.7144C82.0043 27.8021 81.0801 28.7025 79.9637 28.7025C78.8473 28.7025 77.9231 27.8021 77.9231 26.7144V20.7502C77.9231 18.5441 76.1063 16.7741 73.8418 16.7741C71.5774 16.7741 69.7606 18.5441 69.7606 20.7502V26.7144C69.7606 27.8021 68.8364 28.7025 67.7199 28.7025C66.6035 28.7025 65.6793 27.8021 65.6793 26.7144V8.81929C65.6793 7.73163 66.6035 6.83123 67.7199 6.83123C68.8364 6.83123 69.7606 7.73163 69.7606 8.81929V13.8831C70.9402 13.2007 72.3436 12.7954 73.8418 12.7954C78.3365 12.7954 82.0043 16.3688 82.0043 20.7477V26.7144Z" fill="black"/>
<path d="M90.0413 26.7144C90.0413 27.8021 89.1171 28.7025 88.0007 28.7025C86.8842 28.7025 85.96 27.8021 85.96 26.7144V14.786C85.96 13.6984 86.8842 12.798 88.0007 12.798C89.1171 12.798 90.0413 13.6984 90.0413 14.786V26.7144Z" fill="black"/>
<path d="M116.953 26.7144C116.953 27.8021 116.029 28.7025 114.913 28.7025C114.37 28.7025 113.859 28.4844 113.478 28.1125L105.728 20.563L97.9819 28.1125C97.6002 28.4844 97.0893 28.7025 96.5469 28.7025C95.4305 28.7025 94.5063 27.8021 94.5063 26.7144V8.81929C94.5063 7.73163 95.4305 6.83123 96.5469 6.83123C97.6633 6.83123 98.5876 7.73163 98.5876 8.81929V21.9302L104.296 16.3688C104.678 15.966 105.22 15.7788 105.731 15.7788C106.242 15.7788 106.784 15.966 107.166 16.3688L112.875 21.9302V8.81929C112.875 7.73163 113.799 6.83123 114.915 6.83123C116.032 6.83123 116.956 7.73163 116.956 8.81929V26.7144H116.953Z" fill="black"/>
<path d="M125.499 26.7144C125.499 27.8021 124.575 28.7025 123.459 28.7025C122.342 28.7025 121.418 27.8021 121.418 26.7144V14.786C121.418 13.6984 122.342 12.798 123.459 12.798C124.575 12.798 125.499 13.6984 125.499 14.786V26.7144Z" fill="black"/>
<path d="M138.639 24.7263C139.213 24.7263 139.658 24.2927 139.658 23.731C139.658 23.1692 139.213 22.7356 138.639 22.7356H134.558C131.751 22.7356 129.455 20.4988 129.455 17.7642C129.455 15.0297 131.751 12.7928 134.558 12.7928H140.68C141.796 12.7928 142.72 13.6932 142.72 14.7808C142.72 15.8685 141.796 16.7689 140.68 16.7689H134.558C133.984 16.7689 133.536 17.2024 133.536 17.7642C133.536 18.326 133.981 18.7595 134.558 18.7595H138.639C141.446 18.7595 143.739 20.9964 143.739 23.731C143.739 26.4655 141.443 28.7024 138.639 28.7024H131.496C130.379 28.7024 129.455 27.802 129.455 26.7143C129.455 25.6267 130.379 24.7263 131.496 24.7263H138.639Z" fill="black"/>
<path d="M154.837 28.7025C150.34 28.7025 146.675 25.1291 146.675 20.7502C146.675 16.3714 150.34 12.798 154.837 12.798C159.332 12.798 163 16.3714 163 20.7502C163 21.8379 162.076 22.7383 160.959 22.7383H151.296C151.999 23.9491 153.305 24.7263 154.835 24.7263H156.875C157.992 24.7263 158.916 25.6267 158.916 26.7144C158.916 27.8021 157.992 28.7025 156.875 28.7025H154.837ZM151.296 18.7596H158.374C157.673 17.5796 156.333 16.7715 154.835 16.7715C153.305 16.7715 151.999 17.5796 151.296 18.7596Z" fill="black"/>
<path d="M87.9995 11.305C89.2676 11.305 90.2956 10.3035 90.2956 9.06812C90.2956 7.83272 89.2676 6.83123 87.9995 6.83123C86.7315 6.83123 85.7035 7.83272 85.7035 9.06812C85.7035 10.3035 86.7315 11.305 87.9995 11.305Z" fill="url(#paint0_linear_614_11966)"/>
<path d="M123.46 11.305C124.728 11.305 125.756 10.3035 125.756 9.06812C125.756 7.83272 124.728 6.83123 123.46 6.83123C122.192 6.83123 121.164 7.83272 121.164 9.06812C121.164 10.3035 122.192 11.305 123.46 11.305Z" fill="url(#paint1_linear_614_11966)"/>
<path d="M25.4302 0H2.3408C1.04796 0 0 1.02097 0 2.2805V27.1325C0 28.056 0.571376 28.8872 1.44556 29.2386C2.3171 29.59 3.32557 29.3951 3.997 28.7435L15.2692 17.7617C16.1829 16.8716 16.1829 15.4274 15.2692 14.5372C14.3555 13.6471 12.8731 13.6471 11.9594 14.5372L4.6816 21.6275V4.561H25.4328C28.9374 4.561 31.7864 7.33915 31.7864 10.7509V24.7751C31.7864 28.1894 28.9348 30.965 25.4328 30.965H14.2686L21.5464 23.8747C22.4601 22.9845 22.4601 21.5403 21.5464 20.6502C20.6327 19.76 19.1503 19.76 18.2366 20.6502L6.96184 31.6345C6.29304 32.2861 6.09293 33.2686 6.45366 34.1203C6.81702 34.9719 7.67014 35.5286 8.61541 35.5286H25.4276C31.5126 35.5286 36.4628 30.7059 36.4628 24.7776V10.7535C36.468 4.82522 31.5179 0 25.4302 0Z" fill="url(#paint2_linear_614_11966)"/>
<path d="M25.3327 19.2445C26.6256 19.2445 27.6735 18.2235 27.6735 16.964V10.8484C27.6735 9.58889 26.6256 8.56793 25.3327 8.56793H19.0555C17.7626 8.56793 16.7147 9.58889 16.7147 10.8484C16.7147 12.108 17.7626 13.1289 19.0555 13.1289H22.9919V16.964C22.9919 18.2235 24.0399 19.2445 25.3327 19.2445Z" fill="url(#paint3_linear_614_11966)"/>
<defs>
<linearGradient id="paint0_linear_614_11966" x1="85.7042" y1="9.06722" x2="90.2951" y2="9.06722" gradientUnits="userSpaceOnUse">
<stop stop-color="#0068FF"/>
<stop offset="1" stop-color="#0000E1"/>
</linearGradient>
<linearGradient id="paint1_linear_614_11966" x1="121.164" y1="9.06722" x2="125.755" y2="9.06722" gradientUnits="userSpaceOnUse">
<stop stop-color="#FF9852"/>
<stop offset="0.2774" stop-color="#FF8A3A"/>
<stop offset="1" stop-color="#FF6700"/>
</linearGradient>
<linearGradient id="paint2_linear_614_11966" x1="22.8398" y1="10.7934" x2="3.74923" y2="30.3888" gradientUnits="userSpaceOnUse">
<stop stop-color="#0068FF"/>
<stop offset="1" stop-color="#0000E1"/>
</linearGradient>
<linearGradient id="paint3_linear_614_11966" x1="27.4647" y1="8.77235" x2="20.4999" y2="15.9213" gradientUnits="userSpaceOnUse">
<stop stop-color="#FF9852"/>
<stop offset="0.2774" stop-color="#FF8A3A"/>
<stop offset="1" stop-color="#FF6700"/>
</linearGradient>
</defs>
</svg>
