<svg width="21" height="11" viewBox="0 0 21 11" fill="none" xmlns="http://www.w3.org/2000/svg">
<path d="M20.6895 0.310406C20.5919 0.212049 20.4758 0.133981 20.348 0.0807052C20.2201 0.0274293 20.0829 0 19.9444 0C19.8059 0 19.6687 0.0274293 19.5408 0.0807052C19.413 0.133981 19.2969 0.212049 19.1993 0.310406L12.5987 6.92153L8.09684 2.40918C7.99929 2.31082 7.88323 2.23275 7.75535 2.17948C7.62747 2.1262 7.49031 2.09877 7.35178 2.09877C7.21325 2.09877 7.07609 2.1262 6.94821 2.17948C6.82033 2.23275 6.70427 2.31082 6.60672 2.40918L0.310406 8.70549C0.212049 8.80304 0.133981 8.9191 0.080705 9.04698C0.0274291 9.17486 0 9.31202 0 9.45055C0 9.58908 0.0274291 9.72624 0.080705 9.85412C0.133981 9.982 0.212049 10.0981 0.310406 10.1956C0.40796 10.294 0.524024 10.372 0.651901 10.4253C0.779778 10.4786 0.916939 10.506 1.05547 10.506C1.194 10.506 1.33116 10.4786 1.45904 10.4253C1.58692 10.372 1.70298 10.294 1.80053 10.1956L7.35178 4.63387L11.8536 9.14623C11.9512 9.24459 12.0673 9.32265 12.1951 9.37593C12.323 9.42921 12.4602 9.45664 12.5987 9.45664C12.7372 9.45664 12.8744 9.42921 13.0023 9.37593C13.1302 9.32265 13.2462 9.24459 13.3438 9.14623L20.6895 1.80053C20.7878 1.70298 20.8659 1.58692 20.9192 1.45904C20.9724 1.33116 20.9999 1.194 20.9999 1.05547C20.9999 0.916939 20.9724 0.779778 20.9192 0.651901C20.8659 0.524023 20.7878 0.40796 20.6895 0.310406Z" fill="#424C5D"/>
</svg>
