<svg width="21" height="19" viewBox="0 0 21 19" fill="none" xmlns="http://www.w3.org/2000/svg">
<path d="M18.6987 1.90266C17.6062 0.80989 16.1578 0.145496 14.6169 0.0303064C13.076 -0.0848832 11.545 0.356783 10.3022 1.27498C8.99295 0.301192 7.36338 -0.140371 5.74163 0.0392135C4.11988 0.218798 2.62641 1.00619 1.56196 2.24283C0.497514 3.47947 -0.0588407 5.07349 0.00493439 6.70391C0.0687095 8.33432 0.747877 9.88002 1.90567 11.0297L9.57159 18.6957C9.66725 18.7921 9.78105 18.8687 9.90644 18.9209C10.0318 18.9731 10.1663 19 10.3022 19C10.438 19 10.5725 18.9731 10.6979 18.9209C10.8233 18.8687 10.9371 18.7921 11.0327 18.6957L18.6987 11.0297C19.2982 10.4306 19.7738 9.71917 20.0983 8.93613C20.4228 8.1531 20.5898 7.3138 20.5898 6.4662C20.5898 5.61859 20.4228 4.7793 20.0983 3.99626C19.7738 3.21323 19.2982 2.50181 18.6987 1.90266ZM17.2478 9.57887L10.3022 16.5142L3.35653 9.57887C2.74447 8.96426 2.32753 8.18259 2.15801 7.33192C1.98849 6.48126 2.07394 5.59947 2.40365 4.79718C2.73335 3.9949 3.29263 3.30783 4.01132 2.82218C4.73001 2.33653 5.57611 2.07393 6.44348 2.0673C7.60223 2.07014 8.71249 2.53274 9.53043 3.35353C9.62609 3.44997 9.73989 3.52652 9.86528 3.57876C9.99068 3.631 10.1252 3.6579 10.261 3.6579C10.3968 3.6579 10.5313 3.631 10.6567 3.57876C10.7821 3.52652 10.8959 3.44997 10.9916 3.35353C11.8336 2.62386 12.9214 2.24135 14.0348 2.28341C15.1483 2.32548 16.2041 2.78897 16.9887 3.5801C17.7733 4.37122 18.228 5.43088 18.2608 6.5446C18.2936 7.65832 17.9021 8.74291 17.1655 9.57887H17.2478Z" fill="#0061FF"/>
</svg>
