<svg width="200" height="200" viewBox="0 0 200 200" fill="none" xmlns="http://www.w3.org/2000/svg">
<circle cx="100" cy="100" r="100" fill="#003995"/>
<path d="M100 0C121.118 2.51829e-07 141.694 6.6855 158.779 19.0983C175.863 31.5111 188.58 49.014 195.106 69.0983L100 100V0Z" fill="#0051D5"/>
<path d="M195.106 69.0983C200.805 86.6379 201.542 105.412 197.237 123.345C192.932 141.277 183.751 157.67 170.711 170.711C157.67 183.751 141.277 192.932 123.345 197.237C105.412 201.542 86.638 200.805 69.0984 195.106L100 100L195.106 69.0983Z" fill="#0061FF"/>
<path d="M69.0983 195.106C49.014 188.58 31.5111 175.863 19.0983 158.779L100 100L69.0983 195.106Z" fill="#4D90FF"/>
</svg>
