<svg width="14" height="9" viewBox="0 0 14 9" fill="none" xmlns="http://www.w3.org/2000/svg">
<path d="M0.0567065 7.96738C0.127715 8.13836 0.263592 8.27424 0.434578 8.34525C0.518704 8.38111 0.609044 8.40012 0.700487 8.40123H4.19929C4.38488 8.40123 4.56287 8.32751 4.6941 8.19627C4.82533 8.06504 4.89905 7.88706 4.89905 7.70147C4.89905 7.51588 4.82533 7.33789 4.6941 7.20666C4.56287 7.07543 4.38488 7.00171 4.19929 7.00171H2.38691L6.29857 3.09005L8.60079 5.39926C8.66584 5.46484 8.74323 5.5169 8.8285 5.55243C8.91378 5.58795 9.00524 5.60624 9.09762 5.60624C9.18999 5.60624 9.28146 5.58795 9.36673 5.55243C9.452 5.5169 9.52939 5.46484 9.59445 5.39926L13.793 1.20069C13.8586 1.13564 13.9107 1.05825 13.9462 0.972973C13.9817 0.887701 14 0.796238 14 0.703861C14 0.611485 13.9817 0.520022 13.9462 0.43475C13.9107 0.349477 13.8586 0.272084 13.793 0.207032C13.728 0.141445 13.6506 0.0893852 13.5653 0.0538592C13.48 0.0183331 13.3886 4.30437e-05 13.2962 4.30437e-05C13.2038 4.30437e-05 13.1123 0.0183331 13.0271 0.0538592C12.9418 0.0893852 12.8644 0.141445 12.7994 0.207032L9.09762 3.91576L6.7954 1.60655C6.73035 1.54097 6.65296 1.48891 6.56769 1.45338C6.48241 1.41786 6.39095 1.39956 6.29857 1.39956C6.2062 1.39956 6.11473 1.41786 6.02946 1.45338C5.94419 1.48891 5.86679 1.54097 5.80174 1.60655L1.40025 6.01505V4.20267C1.40025 4.01708 1.32652 3.83909 1.19529 3.70786C1.06406 3.57663 0.886074 3.5029 0.700487 3.5029C0.514899 3.5029 0.336911 3.57663 0.205681 3.70786C0.0744496 3.83909 0.000725737 4.01708 0.000725737 4.20267V7.70147C0.00183086 7.79291 0.0208502 7.88325 0.0567065 7.96738Z" fill="#359766"/>
</svg>
