<svg width="163" height="36" viewBox="0 0 163 36" fill="none" xmlns="http://www.w3.org/2000/svg">
<path d="M51.0712 10.8098C55.0076 10.8098 58.2094 13.9291 58.2094 17.7642C58.2094 21.5992 55.0076 24.7186 51.0712 24.7186H46.1763V10.8098H51.0712ZM51.0712 6.82855H44.3358C43.1088 6.82855 42.0898 7.81873 42.0898 9.0167V26.5142C42.0898 27.7096 43.1061 28.7024 44.3358 28.7024H51.0712C57.28 28.7024 62.296 23.8156 62.296 17.7667C62.296 11.7179 57.28 6.82855 51.0712 6.82855Z" fill="black"/>
<path d="M82.0042 26.7144C82.0042 27.8021 81.08 28.7025 79.9636 28.7025C78.8472 28.7025 77.923 27.8021 77.923 26.7144V20.7503C77.923 18.5441 76.1061 16.7741 73.8417 16.7741C71.5773 16.7741 69.7604 18.5441 69.7604 20.7503V26.7144C69.7604 27.8021 68.8362 28.7025 67.7198 28.7025C66.6034 28.7025 65.6792 27.8021 65.6792 26.7144V8.81931C65.6792 7.73164 66.6034 6.83124 67.7198 6.83124C68.8362 6.83124 69.7604 7.73164 69.7604 8.81931V13.8831C70.94 13.2007 72.3435 12.7954 73.8417 12.7954C78.3364 12.7954 82.0042 16.3688 82.0042 20.7477V26.7144Z" fill="black"/>
<path d="M90.0402 26.7143C90.0402 27.802 89.116 28.7024 87.9996 28.7024C86.8831 28.7024 85.9589 27.802 85.9589 26.7143V14.7859C85.9589 13.6983 86.8831 12.7979 87.9996 12.7979C89.116 12.7979 90.0402 13.6983 90.0402 14.7859V26.7143Z" fill="black"/>
<path d="M116.953 26.7144C116.953 27.8021 116.029 28.7025 114.913 28.7025C114.37 28.7025 113.859 28.4845 113.477 28.1125L105.728 20.563L97.9819 28.1125C97.6001 28.4845 97.0892 28.7025 96.5468 28.7025C95.4304 28.7025 94.5062 27.8021 94.5062 26.7144V8.81931C94.5062 7.73164 95.4304 6.83124 96.5468 6.83124C97.6632 6.83124 98.5875 7.73164 98.5875 8.81931V21.9303L104.296 16.3688C104.678 15.9661 105.22 15.7788 105.731 15.7788C106.242 15.7788 106.784 15.9661 107.166 16.3688L112.875 21.9303V8.81931C112.875 7.73164 113.799 6.83124 114.915 6.83124C116.032 6.83124 116.956 7.73164 116.956 8.81931V26.7144H116.953Z" fill="black"/>
<path d="M125.5 26.7143C125.5 27.802 124.576 28.7024 123.46 28.7024C122.343 28.7024 121.419 27.802 121.419 26.7143V14.7859C121.419 13.6983 122.343 12.7979 123.46 12.7979C124.576 12.7979 125.5 13.6983 125.5 14.7859V26.7143Z" fill="black"/>
<path d="M138.639 24.7262C139.213 24.7262 139.658 24.2927 139.658 23.7309C139.658 23.1691 139.213 22.7356 138.639 22.7356H134.558C131.751 22.7356 129.455 20.4987 129.455 17.7642C129.455 15.0296 131.751 12.7927 134.558 12.7927H140.68C141.796 12.7927 142.72 13.6931 142.72 14.7808C142.72 15.8685 141.796 16.7689 140.68 16.7689H134.558C133.984 16.7689 133.536 17.2024 133.536 17.7642C133.536 18.326 133.981 18.7595 134.558 18.7595H138.639C141.446 18.7595 143.739 20.9964 143.739 23.7309C143.739 26.4655 141.443 28.7024 138.639 28.7024H131.496C130.379 28.7024 129.455 27.802 129.455 26.7143C129.455 25.6266 130.379 24.7262 131.496 24.7262H138.639Z" fill="black"/>
<path d="M154.837 28.7024C150.34 28.7024 146.675 25.129 146.675 20.7501C146.675 16.3713 150.34 12.7979 154.837 12.7979C159.332 12.7979 163 16.3713 163 20.7501C163 21.8378 162.076 22.7382 160.959 22.7382H151.296C151.999 23.949 153.305 24.7263 154.835 24.7263H156.875C157.992 24.7263 158.916 25.6267 158.916 26.7143C158.916 27.802 157.992 28.7024 156.875 28.7024H154.837ZM151.296 18.7595H158.374C157.673 17.5795 156.333 16.7714 154.835 16.7714C153.305 16.7714 151.999 17.5795 151.296 18.7595Z" fill="black"/>
<path d="M88.0004 11.305C89.2685 11.305 90.2964 10.3035 90.2964 9.06813C90.2964 7.83273 89.2685 6.83124 88.0004 6.83124C86.7323 6.83124 85.7043 7.83273 85.7043 9.06813C85.7043 10.3035 86.7323 11.305 88.0004 11.305Z" fill="url(#paint0_linear_614_9758)"/>
<path d="M123.459 11.305C124.727 11.305 125.755 10.3035 125.755 9.06813C125.755 7.83273 124.727 6.83124 123.459 6.83124C122.191 6.83124 121.163 7.83273 121.163 9.06813C121.163 10.3035 122.191 11.305 123.459 11.305Z" fill="url(#paint1_linear_614_9758)"/>
<path d="M25.4302 0H2.3408C1.04796 0 0 1.02097 0 2.2805V27.1326C0 28.0561 0.571377 28.8872 1.44556 29.2386C2.31711 29.5901 3.32557 29.3951 3.99701 28.7436L15.2692 17.7617C16.1829 16.8716 16.1829 15.4274 15.2692 14.5372C14.3555 13.6471 12.8731 13.6471 11.9594 14.5372L4.68161 21.6276V4.561H25.4329C28.9375 4.561 31.7865 7.33916 31.7865 10.7509V24.7751C31.7865 28.1895 28.9349 30.9651 25.4329 30.9651H14.2686L21.5464 23.8747C22.4601 22.9846 22.4601 21.5403 21.5464 20.6502C20.6328 19.7601 19.1503 19.7601 18.2367 20.6502L6.96185 31.6346C6.29305 32.2862 6.09293 33.2686 6.45367 34.1203C6.81703 34.972 7.67015 35.5286 8.61542 35.5286H25.4276C31.5126 35.5286 36.4628 30.706 36.4628 24.7777V10.7535C36.4681 4.82522 31.5179 0 25.4302 0Z" fill="url(#paint2_linear_614_9758)"/>
<path d="M25.3329 19.2444C26.6257 19.2444 27.6737 18.2234 27.6737 16.9639V10.8483C27.6737 9.58878 26.6257 8.56782 25.3329 8.56782H19.0556C17.7628 8.56782 16.7148 9.58878 16.7148 10.8483C16.7148 12.1079 17.7628 13.1288 19.0556 13.1288H22.9921V16.9639C22.9921 18.2234 24.04 19.2444 25.3329 19.2444Z" fill="url(#paint3_linear_614_9758)"/>
<defs>
<linearGradient id="paint0_linear_614_9758" x1="85.705" y1="9.06724" x2="90.2959" y2="9.06724" gradientUnits="userSpaceOnUse">
<stop stop-color="#0068FF"/>
<stop offset="1" stop-color="#0000E1"/>
</linearGradient>
<linearGradient id="paint1_linear_614_9758" x1="121.164" y1="9.06724" x2="125.755" y2="9.06724" gradientUnits="userSpaceOnUse">
<stop stop-color="#FF9852"/>
<stop offset="0.2774" stop-color="#FF8A3A"/>
<stop offset="1" stop-color="#FF6700"/>
</linearGradient>
<linearGradient id="paint2_linear_614_9758" x1="22.8398" y1="10.7934" x2="3.74923" y2="30.3888" gradientUnits="userSpaceOnUse">
<stop stop-color="#0068FF"/>
<stop offset="1" stop-color="#0000E1"/>
</linearGradient>
<linearGradient id="paint3_linear_614_9758" x1="27.4649" y1="8.77224" x2="20.5" y2="15.9212" gradientUnits="userSpaceOnUse">
<stop stop-color="#FF9852"/>
<stop offset="0.2774" stop-color="#FF8A3A"/>
<stop offset="1" stop-color="#FF6700"/>
</linearGradient>
</defs>
</svg>
