<svg width="16" height="16" viewBox="0 0 16 16" fill="none" xmlns="http://www.w3.org/2000/svg">
<path d="M7.99976 0C12.4179 0 15.9995 3.58161 15.9995 7.99976C15.9995 12.4179 12.4179 15.9995 7.99976 15.9995C6.72658 15.9995 5.49574 15.7014 4.38655 15.1389L4.26587 15.0745L0.621072 15.9846C0.311259 16.062 0.0262233 15.8364 0.00130983 15.5434L0.00114127 15.4619L0.0149324 15.3782L0.924972 11.7346L0.861664 11.615C0.40659 10.7182 0.124327 9.74194 0.0327456 8.728L0.00737573 8.34609L0 7.99976C0 3.58161 3.58161 0 7.99976 0ZM7.99976 0.999969C4.13388 0.999969 0.999969 4.13388 0.999969 7.99976C0.999969 9.21676 1.3105 10.3875 1.89347 11.4245C1.9404 11.508 1.96204 11.6026 1.95686 11.697L1.94268 11.7908L1.18696 14.8115L4.21091 14.0579C4.27281 14.0425 4.33649 14.0391 4.3986 14.0475L4.49017 14.0687L4.57687 14.1071C5.61345 14.6894 6.78349 14.9995 7.99976 14.9995C11.8656 14.9995 14.9995 11.8656 14.9995 7.99976C14.9995 4.13388 11.8656 0.999969 7.99976 0.999969ZM8.49974 8.99973C8.77587 8.99973 8.99973 9.22358 8.99973 9.49971C8.99973 9.74516 8.82286 9.94931 8.58961 9.99164L8.49974 9.99969H5.49983C5.2237 9.99969 4.99985 9.77584 4.99985 9.49971C4.99985 9.25426 5.17672 9.05012 5.40996 9.00778L5.49983 8.99973H8.49974ZM10.4997 5.99982C10.7758 5.99982 10.9997 6.22367 10.9997 6.4998C10.9997 6.74525 10.8228 6.9494 10.5896 6.99173L10.4997 6.99979H5.49983C5.2237 6.99979 4.99985 6.77594 4.99985 6.4998C4.99985 6.25435 5.17672 6.05021 5.40996 6.00787L5.49983 5.99982H10.4997Z" fill="#090B0D"/>
</svg>
