<svg width="24" height="20" viewBox="0 0 24 20" fill="none" xmlns="http://www.w3.org/2000/svg">
<path d="M23.0281 1.01129C22.0693 1.68759 21.0078 2.20486 19.8843 2.54316C19.2813 1.84982 18.4799 1.35841 17.5885 1.13537C16.6971 0.91233 15.7587 0.968434 14.9003 1.29609C14.0418 1.62375 13.3047 2.20715 12.7886 2.96739C12.2725 3.72764 12.0023 4.62804 12.0147 5.54683V6.54805C10.2552 6.59367 8.51166 6.20344 6.93948 5.41211C5.3673 4.62078 4.01522 3.45291 3.00367 2.01251C3.00367 2.01251 -1.00122 11.0235 8.00978 15.0284C5.94779 16.4281 3.49142 17.1299 1.00122 17.0308C10.0122 22.037 21.0257 17.0308 21.0257 5.51679C21.0247 5.2379 20.9979 4.9597 20.9456 4.68578C21.9674 3.67804 22.6885 2.40571 23.0281 1.01129V1.01129Z" stroke="#424C5D" stroke-width="2" stroke-linecap="round" stroke-linejoin="round"/>
</svg>
