<svg width="59" height="59" viewBox="0 0 59 59" fill="none" xmlns="http://www.w3.org/2000/svg">
<path d="M29.4999 0C13.275 0 0 13.275 0 29.4999C0 45.7249 13.275 58.9998 29.4999 58.9998C45.7249 58.9998 58.9998 45.7249 58.9998 29.4999C58.9998 13.275 45.7249 0 29.4999 0ZM43.3649 32.4499C42.7749 33.3349 42.1849 34.2199 41.2999 34.5149L26.5499 43.0699C23.5999 44.8399 20.0599 43.6599 18.585 41.0049C17.995 40.1199 17.7 39.2349 17.7 38.0549V20.9449C17.7 17.7 20.3549 15.045 23.5999 15.045C24.7799 15.045 25.6649 15.34 26.5499 15.93L41.2999 24.4849C44.2499 25.9599 45.1349 29.4999 43.3649 32.4499Z" fill="#0061FF"/>
</svg>
