<svg width="12" height="9" viewBox="0 0 12 9" fill="none" xmlns="http://www.w3.org/2000/svg">
<path d="M11.7252 0.252572C11.6459 0.172541 11.5514 0.109018 11.4474 0.0656681C11.3433 0.0223184 11.2317 0 11.119 0C11.0063 0 10.8947 0.0223184 10.7906 0.0656681C10.6866 0.109018 10.5921 0.172541 10.5127 0.252572L4.15144 6.62242L1.47883 3.94128C1.39641 3.86166 1.29912 3.79906 1.19251 3.75705C1.0859 3.71504 0.972064 3.69443 0.857491 3.69641C0.742919 3.6984 0.629859 3.72293 0.524766 3.7686C0.419674 3.81428 0.324607 3.88021 0.244993 3.96262C0.16538 4.04504 0.10278 4.14233 0.0607662 4.24894C0.0187526 4.35555 -0.00185165 4.46939 0.000130572 4.58396C0.0021128 4.69854 0.0266425 4.8116 0.0723188 4.91669C0.117995 5.02178 0.183924 5.11685 0.26634 5.19646L3.54519 8.47531C3.62457 8.55534 3.71901 8.61887 3.82306 8.66221C3.92711 8.70556 4.03872 8.72788 4.15144 8.72788C4.26416 8.72788 4.37576 8.70556 4.47981 8.66221C4.58386 8.61887 4.6783 8.55534 4.75768 8.47531L11.7252 1.50776C11.8119 1.4278 11.8811 1.33076 11.9284 1.22274C11.9757 1.11473 12.0001 0.998085 12.0001 0.880165C12.0001 0.762244 11.9757 0.645601 11.9284 0.537588C11.8811 0.429574 11.8119 0.33253 11.7252 0.252572Z" fill="white"/>
</svg>
