<svg width="24" height="18" viewBox="0 0 24 18" fill="none" xmlns="http://www.w3.org/2000/svg">
<path d="M23.4495 0.505124C23.2907 0.345067 23.1019 0.218026 22.8938 0.131331C22.6857 0.0446349 22.4625 0 22.2371 0C22.0116 0 21.7884 0.0446349 21.5803 0.131331C21.3722 0.218026 21.1834 0.345067 21.0246 0.505124L8.30252 13.2443L2.95754 7.88223C2.79271 7.72301 2.59814 7.59781 2.38493 7.51379C2.17172 7.42976 1.94405 7.38856 1.71491 7.39252C1.48578 7.39649 1.25967 7.44554 1.04949 7.53689C0.839313 7.62824 0.649187 7.76009 0.489967 7.92492C0.330747 8.08975 0.205551 8.28432 0.121527 8.49753C0.0375036 8.71074 -0.00370315 8.93841 0.000261133 9.16755C0.00422541 9.39668 0.0532828 9.62279 0.144632 9.83297C0.23598 10.0431 0.367832 10.2333 0.532658 10.3925L7.09008 16.9499C7.24883 17.11 7.4377 17.237 7.6458 17.3237C7.85389 17.4104 8.07709 17.455 8.30252 17.455C8.52796 17.455 8.75116 17.4104 8.95925 17.3237C9.16735 17.237 9.35622 17.11 9.51497 16.9499L23.4495 3.01539C23.6228 2.85548 23.7612 2.6614 23.8558 2.44538C23.9504 2.22936 23.9992 1.99609 23.9992 1.76026C23.9992 1.52442 23.9504 1.29115 23.8558 1.07513C23.7612 0.859112 23.6228 0.665033 23.4495 0.505124Z" fill="white"/>
</svg>
