<svg width="27" height="25" viewBox="0 0 27 25" fill="none" xmlns="http://www.w3.org/2000/svg">
<path d="M24.6651 0.607552C23.993 0.209833 23.2264 0 22.4455 0C21.6645 0 20.898 0.209833 20.2259 0.607552L8.09575 7.90722V4.07523C8.09575 3.00167 7.66928 1.97208 6.91016 1.21295C6.15103 0.453828 5.12144 0.0273561 4.04788 0.0273561C2.97431 0.0273561 1.94472 0.453828 1.1856 1.21295C0.426471 1.97208 0 3.00167 0 4.07523V20.2667C0 21.3403 0.426471 22.3699 1.1856 23.129C1.94472 23.8881 2.97431 24.3146 4.04788 24.3146C5.12144 24.3146 6.15103 23.8881 6.91016 23.129C7.66928 22.3699 8.09575 21.3403 8.09575 20.2667V16.4347L20.2394 23.6804C20.9239 24.0926 21.7072 24.3117 22.5062 24.3146C23.2685 24.3139 24.0174 24.1139 24.6785 23.7344C25.394 23.3312 25.9873 22.7422 26.3958 22.0297C26.8043 21.3173 27.0128 20.5077 26.9993 19.6865V4.64193C27.009 3.8217 26.7973 3.01403 26.3865 2.30402C25.9757 1.594 25.381 1.00793 24.6651 0.607552ZM5.39717 20.2667C5.39717 20.6246 5.25501 20.9678 5.00197 21.2208C4.74893 21.4739 4.40573 21.616 4.04788 21.616C3.69002 21.616 3.34682 21.4739 3.09378 21.2208C2.84074 20.9678 2.69858 20.6246 2.69858 20.2667V4.07523C2.69858 3.71738 2.84074 3.37418 3.09378 3.12114C3.34682 2.8681 3.69002 2.72594 4.04788 2.72594C4.40573 2.72594 4.74893 2.8681 5.00197 3.12114C5.25501 3.37418 5.39717 3.71738 5.39717 4.07523V20.2667ZM24.2873 19.7C24.295 20.0415 24.21 20.3787 24.0413 20.6757C23.8726 20.9727 23.6265 21.2184 23.3293 21.3866C23.0691 21.5452 22.7703 21.629 22.4657 21.629C22.1611 21.629 21.8623 21.5452 21.6022 21.3866L9.01327 13.8306C8.73164 13.6548 8.49938 13.4102 8.33836 13.1199C8.17734 12.8295 8.09286 12.503 8.09286 12.171C8.09286 11.839 8.17734 11.5124 8.33836 11.2221C8.49938 10.9318 8.73164 10.6872 9.01327 10.5114L21.5887 2.98231C21.859 2.81154 22.1729 2.72252 22.4927 2.72594C22.7864 2.73058 23.0742 2.80949 23.3293 2.95532C23.6265 3.12357 23.8726 3.36928 24.0413 3.66628C24.21 3.96327 24.295 4.30046 24.2873 4.64193V19.7Z" fill="#0061FF"/>
</svg>
