<svg width="20" height="20" viewBox="0 0 20 20" fill="none" xmlns="http://www.w3.org/2000/svg">
<path d="M10 0C4.5 0 0 4.5 0 10C0 15.5 4.5 20 10 20C15.5 20 20 15.5 20 10C20 4.5 15.5 0 10 0ZM2.3 12C2.1 11.3 2 10.7 2 10C2 9.3 2.1 8.7 2.3 8H4.2C4 9.3 4 10.7 4.2 12H2.3ZM3.1 14H4.5C4.7 14.9 5 15.8 5.5 16.6C4.5 15.9 3.7 15 3.1 14ZM4.5 6H3.1C3.7 5 4.5 4.1 5.5 3.4C5 4.2 4.7 5.1 4.5 6ZM9 17.7C7.8 16.8 6.9 15.5 6.6 14H9V17.7ZM9 12H6.1C6 11.3 6 10.7 6 10C6 9.3 6 8.7 6.1 8H9V12ZM9 6H6.6C6.9 4.5 7.8 3.2 9 2.3V6ZM16.9 6H15.5C15.3 5.1 15 4.2 14.5 3.4C15.5 4.1 16.3 5 16.9 6ZM11 2.3C12.2 3.2 13.1 4.5 13.4 6H11V2.3ZM11 17.7V14H13.4C13.1 15.5 12.2 16.8 11 17.7ZM13.9 12H11V8H13.9C14 9.3 14 10.7 13.9 12ZM14.6 16.6C15 15.8 15.3 14.9 15.6 14H17C16.3 15 15.5 15.9 14.6 16.6ZM15.9 12C16.1 10.7 16.1 9.3 15.9 8H17.8C18.2 9.3 18.2 10.7 17.8 12H15.9Z" fill="#424C5D"/>
</svg>
