<svg width="18" height="18" viewBox="0 0 18 18" fill="none" xmlns="http://www.w3.org/2000/svg">
<path d="M1 14C1 13.4477 1.44772 13 2 13H6C6.55228 13 7 13.4477 7 14V16C7 16.5523 6.55228 17 6 17H2C1.44772 17 1 16.5523 1 16V14ZM11 2C11 1.44772 11.4477 1 12 1H16C16.5523 1 17 1.44772 17 2V4C17 4.55228 16.5523 5 16 5H12C11.4477 5 11 4.55228 11 4V2ZM1 2C1 1.44772 1.44772 1 2 1H6C6.55228 1 7 1.44772 7 2V8C7 8.5523 6.55228 9 6 9H2C1.44772 9 1 8.5523 1 8V2ZM11 10C11 9.4477 11.4477 9 12 9H16C16.5523 9 17 9.4477 17 10V16C17 16.5523 16.5523 17 16 17H12C11.4477 17 11 16.5523 11 16V10Z" stroke="#0061FF" stroke-width="2" stroke-linecap="round" stroke-linejoin="round"/>
</svg>
